<?xml version="1.0" encoding="utf-8"?>
<!-- Generator: Adobe Illustrator 27.9.0, SVG Export Plug-In . SVG Version: 6.00 Build 0)  -->
<svg version="1.1" id="Layer_1" xmlns="http://www.w3.org/2000/svg" xmlns:xlink="http://www.w3.org/1999/xlink" x="0px" y="0px"
	 viewBox="0 0 595.3 841.9" style="enable-background:new 0 0 595.3 841.9;" xml:space="preserve">
<style type="text/css">
	.st0{fill:#FFFFFF;}
</style>
<path id="XMLID_713_" class="st0" d="M326.6,193.6c-0.1,26.8,2.5,52.3-1.1,76.8c-3.9,27.2-9.9,55-21.2,79.8
	c-13.2,29-42.6,38.6-70.2,29.6c-29.5-9.7-44.8-35.1-40-68.8c6.3-43.6,28.3-79.4,57-111.5c7-7.8,14.6-15.2,21.5-22.3
	c-10.8-66.4-31.3-78.1-179-102.6c-0.4-24.7,17.1-29.6,35.9-32.1c62.9-8.3,144.2,32.6,175,87.8c3.1,5.6,6,11.3,9.5,18.1
	c8.9-1.7,16.5-3.5,24.2-4.5c55.7-7.3,104.6,16.6,126.4,68.3c12.6,29.9,19.5,63.3,22.7,95.7c5.5,55.9-4.3,111.4-20.3,164.9
	c-19.4,64.7-41.9,128.4-63,192.6c-3.2,9.6-5.9,19.4-9.7,32c22.4-7.3,40.4-14.7,59.2-18.6c7.2-1.5,22.3,4.4,22.8,8.4
	c1.2,8.6-4.4,18.3-7.9,27.4c-0.8,2-4.2,3.1-6.4,4.5c-35.7,22.5-71.7,44.5-106.9,67.7c-31.1,20.5-40.9,19.4-61.2-11.3
	c-23.3-35.3-32.4-75.2-34.4-116.7c-0.6-13.5,1-27.3,22-28.5c26.6,26.8,19.5,68.8,40.8,104.5c6.2-13.2,11.2-21.9,14.5-31.1
	c27.9-80,57.9-159.4,82-240.6c13-44,18.7-90.9,21.7-136.8c1.8-28.3-3.6-58.5-12.8-85.6C412.7,195,377.6,180,326.6,193.6z
	 M287.4,237.3c-3.3-1-6.7-2-10.1-3c-18.7,18.3-31.9,40.2-39.6,65.5c-7,23.4-3.6,38.2,10,40c19.2,2.6,24.9-12.8,27.9-26.6
	C280.9,288.3,283.6,262.7,287.4,237.3z"/>
</svg>
