<svg xmlns="http://www.w3.org/2000/svg" xmlns:xlink="http://www.w3.org/1999/xlink" width="500" zoomAndPan="magnify" viewBox="0 0 375 374.999991" height="500" preserveAspectRatio="xMidYMid meet" version="1.0"><defs><g/><clipPath id="62466ab7ea"><path d="M 146.628906 44.230469 L 227 44.230469 L 227 267.730469 L 146.628906 267.730469 Z M 146.628906 44.230469 " clip-rule="nonzero"/></clipPath><clipPath id="09e95ee947"><path d="M 60.085938 144.316406 L 329.550781 144.316406 L 329.550781 169.890625 L 60.085938 169.890625 Z M 60.085938 144.316406 " clip-rule="nonzero"/></clipPath></defs><rect x="-37.5" width="450" fill="#ffffff" y="-37.499999" height="449.999989" fill-opacity="1"/><rect x="-37.5" width="450" fill="#5e5b5b" y="-37.499999" height="449.999989" fill-opacity="1"/><g clip-path="url(#62466ab7ea)"><path fill="#ffffff" d="M 226.128906 93.683594 C 225.6875 92.839844 224.921875 92.21875 224.007812 91.949219 L 199.191406 84.730469 L 199.191406 81.511719 C 199.191406 79.574219 197.621094 78 195.679688 78 L 175.550781 78 C 173.613281 78 172.039062 79.574219 172.039062 81.511719 L 172.039062 84.785156 L 149.179688 91.972656 C 148.265625 92.257812 147.511719 92.90625 147.085938 93.765625 C 146.660156 94.621094 146.605469 95.613281 146.929688 96.515625 L 163.898438 143.484375 C 164.417969 144.914062 165.765625 145.800781 167.203125 145.800781 C 167.597656 145.800781 168 145.734375 168.394531 145.59375 C 170.21875 144.933594 171.164062 142.921875 170.503906 141.097656 L 154.78125 97.574219 L 176.601562 90.710938 C 178.066406 90.253906 179.0625 88.898438 179.0625 87.363281 L 179.0625 85.023438 L 192.167969 85.023438 L 192.167969 87.363281 C 192.167969 88.925781 193.199219 90.296875 194.699219 90.734375 L 218.5625 97.679688 L 204.339844 141.199219 C 203.734375 143.042969 204.742188 145.023438 206.585938 145.628906 C 208.429688 146.230469 210.410156 145.222656 211.011719 143.378906 L 226.363281 96.414062 C 226.660156 95.507812 226.574219 94.523438 226.128906 93.683594 Z M 174.46875 55.453125 C 174.46875 49.429688 179.457031 44.53125 185.480469 44.53125 C 191.503906 44.53125 196.34375 49.429688 196.34375 55.453125 C 196.34375 60.21875 193.574219 64.28125 188.894531 65.769531 L 188.894531 69.78125 C 188.894531 71.71875 187.320312 73.292969 185.382812 73.292969 C 183.441406 73.292969 181.871094 71.71875 181.871094 69.78125 L 181.871094 65.820312 C 177.65625 64.378906 174.46875 60.277344 174.46875 55.453125 Z M 181.636719 55.453125 C 181.636719 57.605469 183.386719 59.355469 185.539062 59.355469 C 187.6875 59.355469 189.4375 57.605469 189.4375 55.453125 C 189.4375 53.300781 187.6875 51.550781 185.539062 51.550781 C 183.386719 51.550781 181.636719 53.300781 181.636719 55.453125 Z M 190.765625 225.929688 L 190.765625 246.105469 C 200.433594 246.761719 208.171875 249.976562 212.148438 251.980469 C 222.609375 257.253906 223.738281 261.492188 223.738281 263.070312 C 223.738281 263.097656 223.734375 263.125 223.734375 263.152344 C 223.753906 263.304688 223.769531 263.457031 223.769531 263.613281 C 223.769531 265.554688 222.195312 267.125 220.257812 267.125 L 154.25 267.125 C 152.3125 267.125 150.742188 265.554688 150.742188 263.613281 C 150.742188 263.46875 150.753906 263.324219 150.769531 263.179688 C 150.769531 263.144531 150.765625 263.109375 150.765625 263.070312 C 150.765625 261.492188 151.894531 257.253906 162.355469 251.980469 C 166.332031 249.976562 174.070312 246.761719 183.742188 246.101562 L 183.742188 225.929688 L 160.804688 225.929688 C 159.328125 225.929688 158.011719 225.007812 157.507812 223.621094 C 150.410156 204.15625 149.457031 187.515625 154.667969 174.164062 C 158.710938 163.808594 165.136719 159.425781 165.410156 159.246094 C 167.023438 158.167969 169.203125 158.605469 170.28125 160.21875 C 171.355469 161.828125 170.921875 164.011719 169.308594 165.085938 C 169.28125 165.105469 164.203125 168.683594 161.023438 177.203125 C 156.921875 188.179688 157.710938 202.558594 163.289062 218.90625 L 211.792969 218.90625 C 217.394531 202.523438 218.328125 188.007812 214.484375 176.8125 C 211.5 168.121094 206.621094 164.386719 206.574219 164.347656 C 205.003906 163.210938 204.667969 161.023438 205.804688 159.453125 C 206.941406 157.882812 209.148438 157.542969 210.71875 158.679688 C 211.703125 159.394531 234.667969 176.730469 217.574219 223.621094 C 217.070312 225.007812 215.75 225.929688 214.277344 225.929688 Z M 187.25 253.003906 C 176.496094 253.003906 167.433594 256.878906 162.242188 260.101562 L 212.257812 260.101562 C 207.066406 256.878906 198.007812 253.003906 187.25 253.003906 Z M 187.25 253.003906 " fill-opacity="1" fill-rule="nonzero"/></g><g clip-path="url(#09e95ee947)"><path fill="#5e5b5b" d="M 60.085938 144.316406 L 329.511719 144.316406 L 329.511719 169.890625 L 60.085938 169.890625 Z M 60.085938 144.316406 " fill-opacity="1" fill-rule="nonzero"/></g><g fill="#ffffff" fill-opacity="1"><g transform="translate(129.020285, 285.40753)"><g><path d="M 9.59375 -1.765625 C 9.757812 -1.335938 9.90625 -1.003906 10.03125 -0.765625 C 10.164062 -0.523438 10.304688 -0.351562 10.453125 -0.25 C 10.597656 -0.144531 10.769531 -0.0820312 10.96875 -0.0625 L 10.96875 0 L 7.046875 0 L 7.046875 -0.0625 C 7.367188 -0.0820312 7.632812 -0.140625 7.84375 -0.234375 C 8.0625 -0.335938 8.195312 -0.5 8.25 -0.71875 C 8.3125 -0.945312 8.257812 -1.269531 8.09375 -1.6875 L 7.8125 -2.375 L 2.34375 -2.375 L 2.03125 -1.6875 C 1.851562 -1.28125 1.785156 -0.96875 1.828125 -0.75 C 1.878906 -0.539062 2 -0.382812 2.1875 -0.28125 C 2.375 -0.1875 2.597656 -0.113281 2.859375 -0.0625 L 2.859375 0 L 0.28125 0 L 0.28125 -0.0625 C 0.476562 -0.113281 0.648438 -0.191406 0.796875 -0.296875 C 0.953125 -0.398438 1.101562 -0.554688 1.25 -0.765625 C 1.394531 -0.984375 1.550781 -1.289062 1.71875 -1.6875 L 4.828125 -8.859375 L 4.796875 -9.171875 L 5.03125 -9.328125 L 6.328125 -10.171875 C 6.328125 -10.117188 6.335938 -10.035156 6.359375 -9.921875 C 6.390625 -9.816406 6.484375 -9.582031 6.640625 -9.21875 Z M 2.4375 -2.625 L 7.71875 -2.625 L 5.1875 -8.953125 Z M 2.4375 -2.625 "/></g></g></g><g fill="#ffffff" fill-opacity="1"><g transform="translate(149.608325, 285.40753)"><g><path d="M 9.515625 -9.796875 L 8.625 -6.921875 L 8.5625 -6.921875 C 8.65625 -7.867188 8.515625 -8.550781 8.140625 -8.96875 C 7.765625 -9.382812 7.21875 -9.59375 6.5 -9.59375 L 5.46875 -9.59375 L 5.46875 -0.9375 C 5.46875 -0.625 5.582031 -0.410156 5.8125 -0.296875 C 6.050781 -0.179688 6.382812 -0.101562 6.8125 -0.0625 L 6.8125 0 L 2.703125 0 L 2.703125 -0.0625 C 3.128906 -0.101562 3.457031 -0.179688 3.6875 -0.296875 C 3.925781 -0.410156 4.046875 -0.625 4.046875 -0.9375 L 4.046875 -9.59375 L 3.71875 -9.59375 C 3.1875 -9.59375 2.738281 -9.539062 2.375 -9.4375 C 2.019531 -9.332031 1.71875 -9.175781 1.46875 -8.96875 C 1.21875 -8.757812 0.992188 -8.484375 0.796875 -8.140625 C 0.597656 -7.796875 0.398438 -7.390625 0.203125 -6.921875 L 0.140625 -6.921875 L 0.609375 -9.796875 Z M 9.515625 -9.796875 "/></g></g></g><g fill="#ffffff" fill-opacity="1"><g transform="translate(168.601253, 285.40753)"><g><path d="M 8.625 -2.734375 L 8.6875 -2.703125 L 8 0 L 7.90625 0.3125 L 7.4375 0 L 0.203125 0 L 0.203125 -0.0625 C 0.492188 -0.164062 0.742188 -0.296875 0.953125 -0.453125 C 1.171875 -0.617188 1.28125 -0.828125 1.28125 -1.078125 L 1.28125 -9 C 1.28125 -9.25 1.171875 -9.421875 0.953125 -9.515625 C 0.742188 -9.617188 0.492188 -9.691406 0.203125 -9.734375 L 0.203125 -9.796875 L 7.71875 -9.796875 L 8.171875 -7.578125 L 8.125 -7.546875 C 7.8125 -7.992188 7.519531 -8.363281 7.25 -8.65625 C 6.976562 -8.957031 6.675781 -9.1875 6.34375 -9.34375 C 6.007812 -9.5 5.578125 -9.578125 5.046875 -9.578125 L 2.703125 -9.578125 L 2.703125 -5.015625 L 4.65625 -5.015625 C 5.15625 -5.015625 5.546875 -5.0625 5.828125 -5.15625 C 6.117188 -5.25 6.34375 -5.394531 6.5 -5.59375 C 6.65625 -5.800781 6.789062 -6.078125 6.90625 -6.421875 L 6.90625 -3.375 C 6.789062 -3.71875 6.65625 -3.992188 6.5 -4.203125 C 6.34375 -4.410156 6.117188 -4.554688 5.828125 -4.640625 C 5.546875 -4.734375 5.15625 -4.78125 4.65625 -4.78125 L 2.703125 -4.78125 L 2.703125 -0.21875 L 5.328125 -0.21875 C 5.859375 -0.21875 6.296875 -0.3125 6.640625 -0.5 C 6.992188 -0.695312 7.320312 -0.984375 7.625 -1.359375 C 7.925781 -1.734375 8.257812 -2.191406 8.625 -2.734375 Z M 8.625 -2.734375 "/></g></g></g><g fill="#ffffff" fill-opacity="1"><g transform="translate(186.824612, 285.40753)"><g><path d="M 8.28125 -2.734375 L 8.328125 -2.703125 L 7.640625 0 L 7.5625 0.3125 L 7.078125 0 L 0.203125 0 L 0.203125 -0.0625 C 0.492188 -0.164062 0.742188 -0.296875 0.953125 -0.453125 C 1.171875 -0.617188 1.28125 -0.828125 1.28125 -1.078125 L 1.28125 -9 C 1.28125 -9.25 1.171875 -9.421875 0.953125 -9.515625 C 0.742188 -9.617188 0.492188 -9.691406 0.203125 -9.734375 L 0.203125 -9.796875 L 3.90625 -9.796875 L 3.90625 -9.734375 C 3.550781 -9.691406 3.257812 -9.617188 3.03125 -9.515625 C 2.8125 -9.421875 2.703125 -9.25 2.703125 -9 L 2.703125 -0.21875 L 4.640625 -0.21875 C 5.273438 -0.21875 5.796875 -0.3125 6.203125 -0.5 C 6.617188 -0.695312 6.976562 -0.984375 7.28125 -1.359375 C 7.59375 -1.734375 7.925781 -2.191406 8.28125 -2.734375 Z M 8.28125 -2.734375 "/></g></g></g><g fill="#ffffff" fill-opacity="1"><g transform="translate(204.698159, 285.40753)"><g><path d="M 0.203125 0 L 0.203125 -0.0625 C 0.492188 -0.101562 0.742188 -0.171875 0.953125 -0.265625 C 1.171875 -0.367188 1.28125 -0.546875 1.28125 -0.796875 L 1.28125 -9 C 1.28125 -9.25 1.171875 -9.421875 0.953125 -9.515625 C 0.742188 -9.617188 0.492188 -9.691406 0.203125 -9.734375 L 0.203125 -9.796875 L 3.765625 -9.796875 L 3.765625 -9.734375 C 3.472656 -9.691406 3.222656 -9.617188 3.015625 -9.515625 C 2.804688 -9.421875 2.703125 -9.25 2.703125 -9 L 2.703125 -0.796875 C 2.703125 -0.546875 2.804688 -0.367188 3.015625 -0.265625 C 3.222656 -0.171875 3.472656 -0.101562 3.765625 -0.0625 L 3.765625 0 Z M 0.203125 0 "/></g></g></g><g fill="#ffffff" fill-opacity="1"><g transform="translate(218.010252, 285.40753)"><g><path d="M 8.625 -2.734375 L 8.6875 -2.703125 L 8 0 L 7.90625 0.3125 L 7.4375 0 L 0.203125 0 L 0.203125 -0.0625 C 0.492188 -0.164062 0.742188 -0.296875 0.953125 -0.453125 C 1.171875 -0.617188 1.28125 -0.828125 1.28125 -1.078125 L 1.28125 -9 C 1.28125 -9.25 1.171875 -9.421875 0.953125 -9.515625 C 0.742188 -9.617188 0.492188 -9.691406 0.203125 -9.734375 L 0.203125 -9.796875 L 7.71875 -9.796875 L 8.171875 -7.578125 L 8.125 -7.546875 C 7.8125 -7.992188 7.519531 -8.363281 7.25 -8.65625 C 6.976562 -8.957031 6.675781 -9.1875 6.34375 -9.34375 C 6.007812 -9.5 5.578125 -9.578125 5.046875 -9.578125 L 2.703125 -9.578125 L 2.703125 -5.015625 L 4.65625 -5.015625 C 5.15625 -5.015625 5.546875 -5.0625 5.828125 -5.15625 C 6.117188 -5.25 6.34375 -5.394531 6.5 -5.59375 C 6.65625 -5.800781 6.789062 -6.078125 6.90625 -6.421875 L 6.90625 -3.375 C 6.789062 -3.71875 6.65625 -3.992188 6.5 -4.203125 C 6.34375 -4.410156 6.117188 -4.554688 5.828125 -4.640625 C 5.546875 -4.734375 5.15625 -4.78125 4.65625 -4.78125 L 2.703125 -4.78125 L 2.703125 -0.21875 L 5.328125 -0.21875 C 5.859375 -0.21875 6.296875 -0.3125 6.640625 -0.5 C 6.992188 -0.695312 7.320312 -0.984375 7.625 -1.359375 C 7.925781 -1.734375 8.257812 -2.191406 8.625 -2.734375 Z M 8.625 -2.734375 "/></g></g></g><g fill="#ffffff" fill-opacity="1"><g transform="translate(236.23361, 285.40753)"><g><path d="M 7.78125 -1.84375 C 8.0625 -1.46875 8.3125 -1.171875 8.53125 -0.953125 C 8.75 -0.734375 8.960938 -0.554688 9.171875 -0.421875 C 9.390625 -0.285156 9.625 -0.160156 9.875 -0.046875 L 9.875 0 L 7.34375 0 L 7.34375 -0.234375 L 4.609375 -4.015625 L 2.703125 -4.015625 L 2.703125 -0.796875 C 2.703125 -0.546875 2.804688 -0.367188 3.015625 -0.265625 C 3.222656 -0.171875 3.472656 -0.101562 3.765625 -0.0625 L 3.765625 0 L 0.203125 0 L 0.203125 -0.0625 C 0.492188 -0.101562 0.742188 -0.171875 0.953125 -0.265625 C 1.171875 -0.367188 1.28125 -0.546875 1.28125 -0.796875 L 1.28125 -9 C 1.28125 -9.25 1.171875 -9.421875 0.953125 -9.515625 C 0.742188 -9.617188 0.492188 -9.691406 0.203125 -9.734375 L 0.203125 -9.796875 L 5.125 -9.796875 C 6.25 -9.796875 7.144531 -9.582031 7.8125 -9.15625 C 8.476562 -8.726562 8.8125 -8.082031 8.8125 -7.21875 C 8.8125 -6.488281 8.566406 -5.851562 8.078125 -5.3125 C 7.585938 -4.78125 6.910156 -4.410156 6.046875 -4.203125 Z M 2.703125 -4.578125 C 3.429688 -4.367188 4.164062 -4.265625 4.90625 -4.265625 C 5.476562 -4.265625 5.953125 -4.332031 6.328125 -4.46875 C 6.703125 -4.601562 6.976562 -4.847656 7.15625 -5.203125 C 7.332031 -5.554688 7.421875 -6.054688 7.421875 -6.703125 C 7.421875 -7.054688 7.382812 -7.398438 7.3125 -7.734375 C 7.238281 -8.078125 7.09375 -8.382812 6.875 -8.65625 C 6.664062 -8.925781 6.359375 -9.140625 5.953125 -9.296875 C 5.554688 -9.460938 5.03125 -9.546875 4.375 -9.546875 L 2.703125 -9.546875 Z M 2.703125 -4.578125 "/></g></g></g><g fill="#ffffff" fill-opacity="1"><g transform="translate(152.99283, 320.894838)"><g><path d="M 0 -4.625 C 0 -5.65625 0.222656 -6.71875 0.671875 -7.8125 C 1.117188 -8.914062 1.8125 -9.96875 2.75 -10.96875 C 3.6875 -11.976562 4.875 -12.875 6.3125 -13.65625 C 7.75 -14.4375 9.460938 -15.007812 11.453125 -15.375 C 10.816406 -15.945312 10.347656 -16.582031 10.046875 -17.28125 C 9.753906 -17.976562 9.609375 -18.679688 9.609375 -19.390625 C 9.609375 -20.535156 9.910156 -21.613281 10.515625 -22.625 C 11.117188 -23.644531 11.90625 -24.46875 12.875 -25.09375 C 13.851562 -25.726562 14.90625 -26.046875 16.03125 -26.046875 C 16.757812 -26.046875 17.4375 -25.898438 18.0625 -25.609375 C 18.695312 -25.328125 19.160156 -24.898438 19.453125 -24.328125 C 19.585938 -24.078125 19.722656 -23.953125 19.859375 -23.953125 C 19.953125 -23.953125 20.046875 -23.972656 20.140625 -24.015625 C 20.234375 -24.066406 20.328125 -24.113281 20.421875 -24.15625 C 20.941406 -24.476562 21.5 -24.757812 22.09375 -25 C 22.6875 -25.238281 23.296875 -25.359375 23.921875 -25.359375 L 24.09375 -25.359375 C 24.34375 -25.359375 24.53125 -25.296875 24.65625 -25.171875 C 24.78125 -25.046875 24.84375 -24.890625 24.84375 -24.703125 C 24.84375 -24.492188 24.757812 -24.300781 24.59375 -24.125 C 24.4375 -23.957031 24.1875 -23.851562 23.84375 -23.8125 C 23.5 -23.789062 23.035156 -23.660156 22.453125 -23.421875 C 21.867188 -23.179688 21.34375 -22.882812 20.875 -22.53125 C 20.40625 -22.175781 20.171875 -21.789062 20.171875 -21.375 C 20.171875 -20.914062 20.09375 -20.300781 19.9375 -19.53125 C 19.78125 -18.769531 19.546875 -17.992188 19.234375 -17.203125 C 18.921875 -16.421875 18.535156 -15.753906 18.078125 -15.203125 C 17.617188 -14.648438 17.09375 -14.375 16.5 -14.375 C 16.039062 -14.375 15.664062 -14.550781 15.375 -14.90625 C 15.09375 -15.257812 14.953125 -15.757812 14.953125 -16.40625 C 14.953125 -17.132812 15.125 -17.875 15.46875 -18.625 C 15.8125 -19.382812 16.238281 -20.109375 16.75 -20.796875 C 17.269531 -21.484375 17.78125 -22.078125 18.28125 -22.578125 C 18.351562 -22.648438 18.421875 -22.726562 18.484375 -22.8125 C 18.554688 -22.90625 18.59375 -23.007812 18.59375 -23.125 C 18.59375 -23.601562 18.351562 -23.945312 17.875 -24.15625 C 17.394531 -24.363281 16.960938 -24.46875 16.578125 -24.46875 C 15.703125 -24.46875 14.828125 -24.195312 13.953125 -23.65625 C 13.085938 -23.125 12.375 -22.441406 11.8125 -21.609375 C 11.257812 -20.785156 10.984375 -19.929688 10.984375 -19.046875 C 10.984375 -18.472656 11.109375 -17.921875 11.359375 -17.390625 C 11.609375 -16.867188 11.972656 -16.425781 12.453125 -16.0625 C 12.703125 -15.875 12.859375 -15.710938 12.921875 -15.578125 C 12.992188 -15.441406 13.03125 -15.316406 13.03125 -15.203125 C 13.03125 -14.972656 12.96875 -14.765625 12.84375 -14.578125 C 12.71875 -14.398438 12.539062 -14.300781 12.3125 -14.28125 C 10.53125 -13.9375 8.988281 -13.414062 7.6875 -12.71875 C 6.382812 -12.019531 5.304688 -11.222656 4.453125 -10.328125 C 3.609375 -9.429688 2.976562 -8.507812 2.5625 -7.5625 C 2.15625 -6.613281 1.953125 -5.707031 1.953125 -4.84375 C 1.953125 -3.625 2.316406 -2.660156 3.046875 -1.953125 C 3.785156 -1.242188 4.757812 -0.890625 5.96875 -0.890625 C 7.09375 -0.890625 8.21875 -1.148438 9.34375 -1.671875 C 10.476562 -2.203125 11.5625 -2.847656 12.59375 -3.609375 C 13.625 -4.378906 14.539062 -5.117188 15.34375 -5.828125 L 15.984375 -6.421875 C 16.210938 -6.597656 16.421875 -6.6875 16.609375 -6.6875 C 16.929688 -6.6875 17.09375 -6.523438 17.09375 -6.203125 C 17.09375 -6.117188 17.066406 -6.015625 17.015625 -5.890625 C 16.972656 -5.765625 16.882812 -5.644531 16.75 -5.53125 L 15.953125 -4.875 C 15.242188 -4.28125 14.46875 -3.65625 13.625 -3 C 12.78125 -2.351562 11.894531 -1.742188 10.96875 -1.171875 C 10.039062 -0.597656 9.085938 -0.128906 8.109375 0.234375 C 7.140625 0.609375 6.175781 0.796875 5.21875 0.796875 C 4.113281 0.796875 3.171875 0.546875 2.390625 0.046875 C 1.617188 -0.441406 1.023438 -1.097656 0.609375 -1.921875 C 0.203125 -2.742188 0 -3.644531 0 -4.625 Z M 18.671875 -20.453125 C 18.523438 -20.453125 18.320312 -20.273438 18.0625 -19.921875 C 17.800781 -19.566406 17.535156 -19.125 17.265625 -18.59375 C 17.003906 -18.070312 16.78125 -17.5625 16.59375 -17.0625 C 16.414062 -16.570312 16.328125 -16.191406 16.328125 -15.921875 C 16.328125 -15.691406 16.410156 -15.578125 16.578125 -15.578125 C 16.804688 -15.578125 17.046875 -15.765625 17.296875 -16.140625 C 17.546875 -16.515625 17.785156 -16.972656 18.015625 -17.515625 C 18.242188 -18.054688 18.429688 -18.570312 18.578125 -19.0625 C 18.722656 -19.550781 18.796875 -19.910156 18.796875 -20.140625 C 18.796875 -20.347656 18.753906 -20.453125 18.671875 -20.453125 Z M 18.671875 -20.453125 "/></g></g></g><g fill="#ffffff" fill-opacity="1"><g transform="translate(169.465078, 320.894838)"><g><path d="M -1.34375 -2.5 C -1.34375 -2.820312 -1.226562 -3.300781 -1 -3.9375 C -0.769531 -4.582031 -0.460938 -5.289062 -0.078125 -6.0625 C 0.296875 -6.84375 0.710938 -7.585938 1.171875 -8.296875 C 1.628906 -9.015625 2.082031 -9.597656 2.53125 -10.046875 C 2.988281 -10.503906 3.40625 -10.734375 3.78125 -10.734375 C 4.144531 -10.734375 4.328125 -10.503906 4.328125 -10.046875 C 4.328125 -9.816406 4.253906 -9.539062 4.109375 -9.21875 C 3.972656 -8.90625 3.769531 -8.578125 3.5 -8.234375 C 3.34375 -8.023438 3.101562 -7.6875 2.78125 -7.21875 C 2.457031 -6.75 2.125 -6.238281 1.78125 -5.6875 C 1.4375 -5.144531 1.148438 -4.617188 0.921875 -4.109375 C 0.691406 -3.609375 0.578125 -3.210938 0.578125 -2.921875 C 0.578125 -2.617188 0.726562 -2.46875 1.03125 -2.46875 C 1.300781 -2.46875 1.644531 -2.570312 2.0625 -2.78125 C 2.488281 -2.988281 2.898438 -3.21875 3.296875 -3.46875 C 4.179688 -4.0625 5.039062 -4.773438 5.875 -5.609375 C 6.71875 -6.441406 7.4375 -7.332031 8.03125 -8.28125 C 8.625 -9.226562 8.976562 -10.140625 9.09375 -11.015625 C 9.1875 -11.609375 9.347656 -12.039062 9.578125 -12.3125 C 9.804688 -12.59375 10.035156 -12.734375 10.265625 -12.734375 C 10.441406 -12.734375 10.601562 -12.644531 10.75 -12.46875 C 10.90625 -12.300781 10.984375 -12.054688 10.984375 -11.734375 C 10.984375 -11.523438 10.898438 -11.191406 10.734375 -10.734375 C 10.484375 -10.117188 10.09375 -9.398438 9.5625 -8.578125 C 9.039062 -7.753906 8.425781 -6.914062 7.71875 -6.0625 C 7.007812 -5.21875 6.25 -4.429688 5.4375 -3.703125 C 4.625 -2.972656 3.796875 -2.382812 2.953125 -1.9375 C 2.109375 -1.488281 1.296875 -1.265625 0.515625 -1.265625 C -0.015625 -1.265625 -0.457031 -1.378906 -0.8125 -1.609375 C -1.164062 -1.835938 -1.34375 -2.132812 -1.34375 -2.5 Z M -1.34375 -2.5 "/></g></g></g><g fill="#ffffff" fill-opacity="1"><g transform="translate(179.863195, 320.894838)"><g><path d="M 3.671875 -1.890625 C 2.296875 -1.890625 1.28125 -2.148438 0.625 -2.671875 C -0.0195312 -3.203125 -0.34375 -3.867188 -0.34375 -4.671875 C -0.34375 -5.398438 -0.128906 -6.132812 0.296875 -6.875 C 0.734375 -7.625 1.304688 -8.300781 2.015625 -8.90625 C 2.734375 -9.507812 3.5 -9.992188 4.3125 -10.359375 C 5.125 -10.722656 5.894531 -10.90625 6.625 -10.90625 C 7.375 -10.90625 7.984375 -10.71875 8.453125 -10.34375 C 8.921875 -9.96875 9.15625 -9.492188 9.15625 -8.921875 C 9.15625 -8.304688 8.898438 -7.785156 8.390625 -7.359375 C 7.878906 -6.929688 7.25 -6.585938 6.5 -6.328125 C 5.757812 -6.066406 5.007812 -5.867188 4.25 -5.734375 C 3.5 -5.597656 2.882812 -5.503906 2.40625 -5.453125 C 2.125 -5.410156 1.9375 -5.300781 1.84375 -5.125 C 1.757812 -4.957031 1.71875 -4.769531 1.71875 -4.5625 C 1.71875 -3.988281 1.976562 -3.597656 2.5 -3.390625 C 3.03125 -3.191406 3.601562 -3.09375 4.21875 -3.09375 C 5.5 -3.09375 6.691406 -3.40625 7.796875 -4.03125 C 8.910156 -4.65625 9.925781 -5.425781 10.84375 -6.34375 C 10.957031 -6.457031 11.09375 -6.515625 11.25 -6.515625 C 11.414062 -6.515625 11.5625 -6.460938 11.6875 -6.359375 C 11.8125 -6.253906 11.875 -6.125 11.875 -5.96875 C 11.875 -5.832031 11.816406 -5.707031 11.703125 -5.59375 C 10.554688 -4.46875 9.316406 -3.566406 7.984375 -2.890625 C 6.660156 -2.222656 5.222656 -1.890625 3.671875 -1.890625 Z M 6.59375 -9.234375 C 6.3125 -9.234375 5.945312 -9.148438 5.5 -8.984375 C 5.0625 -8.828125 4.625 -8.625 4.1875 -8.375 C 3.75 -8.125 3.375 -7.859375 3.0625 -7.578125 C 2.757812 -7.304688 2.609375 -7.054688 2.609375 -6.828125 C 2.609375 -6.671875 2.734375 -6.59375 2.984375 -6.59375 L 3.15625 -6.625 C 3.363281 -6.664062 3.703125 -6.734375 4.171875 -6.828125 C 4.640625 -6.921875 5.128906 -7.035156 5.640625 -7.171875 C 6.160156 -7.304688 6.601562 -7.488281 6.96875 -7.71875 C 7.332031 -7.945312 7.515625 -8.222656 7.515625 -8.546875 C 7.515625 -8.753906 7.421875 -8.921875 7.234375 -9.046875 C 7.054688 -9.171875 6.84375 -9.234375 6.59375 -9.234375 Z M 6.59375 -9.234375 "/></g></g></g><g fill="#ffffff" fill-opacity="1"><g transform="translate(191.222186, 320.894838)"><g><path d="M -0.65625 -3.53125 C -0.65625 -4.289062 -0.453125 -5.160156 -0.046875 -6.140625 C 0.347656 -7.128906 0.847656 -8.148438 1.453125 -9.203125 C 2.066406 -10.253906 2.6875 -11.238281 3.3125 -12.15625 C 3.9375 -13.082031 4.488281 -13.867188 4.96875 -14.515625 L 6.6875 -16.671875 C 7.394531 -17.472656 8.0625 -18.046875 8.6875 -18.390625 C 9.320312 -18.734375 9.859375 -18.90625 10.296875 -18.90625 C 11.066406 -18.90625 11.453125 -18.492188 11.453125 -17.671875 C 11.453125 -17.304688 11.34375 -16.875 11.125 -16.375 C 10.914062 -15.882812 10.582031 -15.34375 10.125 -14.75 C 9.476562 -13.945312 8.585938 -13.039062 7.453125 -12.03125 C 6.328125 -11.03125 5.054688 -9.890625 3.640625 -8.609375 C 3.242188 -8.265625 2.835938 -7.816406 2.421875 -7.265625 C 2.015625 -6.722656 1.675781 -6.144531 1.40625 -5.53125 C 1.132812 -4.925781 1 -4.375 1 -3.875 C 1 -3.238281 1.269531 -2.921875 1.8125 -2.921875 C 2.25 -2.921875 2.765625 -3.078125 3.359375 -3.390625 C 3.953125 -3.710938 4.582031 -4.132812 5.25 -4.65625 C 5.914062 -5.1875 6.535156 -5.738281 7.109375 -6.3125 C 7.242188 -6.445312 7.378906 -6.515625 7.515625 -6.515625 C 7.691406 -6.515625 7.84375 -6.460938 7.96875 -6.359375 C 8.101562 -6.253906 8.171875 -6.125 8.171875 -5.96875 C 8.171875 -5.90625 8.144531 -5.84375 8.09375 -5.78125 C 8.050781 -5.726562 8.003906 -5.664062 7.953125 -5.59375 C 7.335938 -4.945312 6.640625 -4.3125 5.859375 -3.6875 C 5.085938 -3.0625 4.300781 -2.539062 3.5 -2.125 C 2.695312 -1.71875 1.941406 -1.515625 1.234375 -1.515625 C 0.660156 -1.515625 0.203125 -1.691406 -0.140625 -2.046875 C -0.484375 -2.398438 -0.65625 -2.894531 -0.65625 -3.53125 Z M 5.1875 -11.796875 C 5.113281 -11.734375 5.078125 -11.664062 5.078125 -11.59375 C 5.078125 -11.53125 5.113281 -11.5 5.1875 -11.5 C 5.300781 -11.5 5.535156 -11.644531 5.890625 -11.9375 C 6.242188 -12.238281 6.65625 -12.625 7.125 -13.09375 C 7.59375 -13.5625 8.046875 -14.050781 8.484375 -14.5625 C 8.929688 -15.082031 9.300781 -15.550781 9.59375 -15.96875 C 9.894531 -16.394531 10.046875 -16.722656 10.046875 -16.953125 C 10.046875 -17.085938 9.988281 -17.15625 9.875 -17.15625 C 9.757812 -17.15625 9.5625 -17.046875 9.28125 -16.828125 C 9 -16.609375 8.640625 -16.257812 8.203125 -15.78125 L 6.453125 -13.625 Z M 5.1875 -11.796875 "/></g></g></g><g fill="#ffffff" fill-opacity="1"><g transform="translate(198.874921, 320.894838)"><g><path d="M -9.15625 6.6875 C -9.15625 6.09375 -8.929688 5.441406 -8.484375 4.734375 C -8.046875 4.023438 -7.332031 3.375 -6.34375 2.78125 C -5.175781 2.050781 -3.898438 1.410156 -2.515625 0.859375 C -1.140625 0.304688 0.1875 -0.1875 1.46875 -0.625 C 1.789062 -0.738281 2.113281 -0.878906 2.4375 -1.046875 C 2.757812 -1.210938 3.007812 -1.4375 3.1875 -1.71875 L 4.1875 -3.125 C 4.226562 -3.1875 4.25 -3.273438 4.25 -3.390625 C 4.25 -3.441406 4.226562 -3.46875 4.1875 -3.46875 C 4.050781 -3.46875 3.8125 -3.351562 3.46875 -3.125 C 2.550781 -2.507812 1.679688 -2.203125 0.859375 -2.203125 C 0.304688 -2.203125 -0.144531 -2.347656 -0.5 -2.640625 C -0.851562 -2.941406 -1.03125 -3.34375 -1.03125 -3.84375 C -1.03125 -4.25 -0.894531 -4.722656 -0.625 -5.265625 C -0.363281 -5.804688 -0.0390625 -6.359375 0.34375 -6.921875 C 0.726562 -7.492188 1.113281 -8.03125 1.5 -8.53125 C 1.894531 -9.039062 2.21875 -9.445312 2.46875 -9.75 L 2.921875 -10.296875 C 3.171875 -10.617188 3.429688 -10.78125 3.703125 -10.78125 C 3.910156 -10.78125 4.085938 -10.695312 4.234375 -10.53125 C 4.378906 -10.375 4.453125 -10.179688 4.453125 -9.953125 C 4.453125 -9.742188 4.410156 -9.582031 4.328125 -9.46875 C 4.191406 -9.3125 3.941406 -9 3.578125 -8.53125 C 3.222656 -8.0625 2.832031 -7.539062 2.40625 -6.96875 C 1.988281 -6.394531 1.597656 -5.859375 1.234375 -5.359375 C 0.910156 -4.898438 0.75 -4.472656 0.75 -4.078125 C 0.75 -3.578125 0.976562 -3.328125 1.4375 -3.328125 C 1.800781 -3.328125 2.265625 -3.515625 2.828125 -3.890625 C 3.390625 -4.265625 3.992188 -4.75 4.640625 -5.34375 C 5.296875 -5.945312 5.929688 -6.570312 6.546875 -7.21875 C 7.171875 -7.875 7.71875 -8.476562 8.1875 -9.03125 C 8.65625 -9.59375 8.992188 -10.023438 9.203125 -10.328125 C 9.335938 -10.535156 9.53125 -10.640625 9.78125 -10.640625 C 10.007812 -10.640625 10.203125 -10.554688 10.359375 -10.390625 C 10.523438 -10.234375 10.609375 -10.039062 10.609375 -9.8125 C 10.609375 -9.625 10.550781 -9.453125 10.4375 -9.296875 C 10.363281 -9.273438 10.175781 -9.070312 9.875 -8.6875 C 9.582031 -8.3125 9.222656 -7.847656 8.796875 -7.296875 C 8.378906 -6.753906 7.96875 -6.191406 7.5625 -5.609375 C 7.164062 -5.023438 6.832031 -4.507812 6.5625 -4.0625 C 6.300781 -3.613281 6.171875 -3.3125 6.171875 -3.15625 C 6.171875 -3 6.265625 -2.921875 6.453125 -2.921875 C 6.660156 -2.921875 6.960938 -3.035156 7.359375 -3.265625 C 7.753906 -3.492188 8.203125 -3.789062 8.703125 -4.15625 C 9.210938 -4.519531 9.707031 -4.894531 10.1875 -5.28125 C 10.664062 -5.675781 11.085938 -6.019531 11.453125 -6.3125 C 11.710938 -6.519531 11.941406 -6.625 12.140625 -6.625 C 12.515625 -6.625 12.703125 -6.472656 12.703125 -6.171875 C 12.703125 -6.078125 12.679688 -5.96875 12.640625 -5.84375 C 12.609375 -5.71875 12.515625 -5.625 12.359375 -5.5625 L 12.28125 -5.53125 C 11.820312 -5.300781 11.296875 -4.972656 10.703125 -4.546875 C 10.109375 -4.117188 9.492188 -3.671875 8.859375 -3.203125 C 8.234375 -2.734375 7.617188 -2.285156 7.015625 -1.859375 C 6.410156 -1.441406 5.867188 -1.117188 5.390625 -0.890625 C 5.066406 -0.734375 4.628906 -0.363281 4.078125 0.21875 C 3.535156 0.800781 3.007812 1.378906 2.5 1.953125 L 1.46875 3.125 C 0.988281 3.644531 0.441406 4.234375 -0.171875 4.890625 C -0.785156 5.546875 -1.453125 6.164062 -2.171875 6.75 C -2.898438 7.332031 -3.644531 7.8125 -4.40625 8.1875 C -5.175781 8.5625 -5.945312 8.75 -6.71875 8.75 C -7.5 8.75 -8.097656 8.546875 -8.515625 8.140625 C -8.941406 7.742188 -9.15625 7.257812 -9.15625 6.6875 Z M -8.03125 6.6875 C -8.03125 7.3125 -7.648438 7.625 -6.890625 7.625 C -6.253906 7.625 -5.566406 7.40625 -4.828125 6.96875 C -4.097656 6.53125 -3.382812 5.988281 -2.6875 5.34375 C -1.988281 4.707031 -1.359375 4.070312 -0.796875 3.4375 C -0.242188 2.8125 0.171875 2.296875 0.453125 1.890625 C 0.742188 1.472656 0.890625 1.21875 0.890625 1.125 C 0.890625 0.988281 0.765625 0.921875 0.515625 0.921875 C 0.0976562 0.921875 -0.429688 1.054688 -1.078125 1.328125 C -1.734375 1.609375 -2.375 1.921875 -3 2.265625 C -3.632812 2.609375 -4.132812 2.882812 -4.5 3.09375 L -5.734375 3.8125 C -6.535156 4.269531 -7.117188 4.765625 -7.484375 5.296875 C -7.847656 5.835938 -8.03125 6.300781 -8.03125 6.6875 Z M -8.03125 6.6875 "/></g></g></g><g fill="#ffffff" fill-opacity="1"><g transform="translate(210.920255, 320.894838)"><g><path d="M -2.375 -2.703125 C -2.375 -2.867188 -2.328125 -3.007812 -2.234375 -3.125 C -1.640625 -4.0625 -1 -4.972656 -0.3125 -5.859375 C 0.375 -6.753906 1.039062 -7.660156 1.6875 -8.578125 L 3.09375 -10.53125 C 3.207031 -10.71875 3.34375 -10.84375 3.5 -10.90625 C 3.65625 -10.976562 3.789062 -11.015625 3.90625 -11.015625 C 4.25 -11.015625 4.46875 -10.890625 4.5625 -10.640625 C 4.632812 -10.453125 4.75 -10.359375 4.90625 -10.359375 C 5.039062 -10.359375 5.203125 -10.40625 5.390625 -10.5 C 5.910156 -10.726562 6.445312 -10.84375 7 -10.84375 C 7.613281 -10.84375 8.140625 -10.6875 8.578125 -10.375 C 9.015625 -10.070312 9.234375 -9.609375 9.234375 -8.984375 C 9.234375 -8.753906 9.191406 -8.507812 9.109375 -8.25 C 9.023438 -7.988281 8.894531 -7.707031 8.71875 -7.40625 C 8.601562 -7.226562 8.460938 -7.039062 8.296875 -6.84375 C 8.140625 -6.644531 7.984375 -6.429688 7.828125 -6.203125 L 7.140625 -5.28125 C 6.859375 -4.914062 6.660156 -4.585938 6.546875 -4.296875 C 6.429688 -4.015625 6.375 -3.785156 6.375 -3.609375 C 6.375 -3.328125 6.503906 -3.1875 6.765625 -3.1875 C 7.015625 -3.1875 7.335938 -3.3125 7.734375 -3.5625 C 8.140625 -3.820312 8.550781 -4.128906 8.96875 -4.484375 C 9.394531 -4.835938 9.789062 -5.175781 10.15625 -5.5 C 10.519531 -5.832031 10.804688 -6.082031 11.015625 -6.25 L 11.21875 -6.421875 C 11.375 -6.535156 11.5 -6.59375 11.59375 -6.59375 C 11.757812 -6.59375 11.898438 -6.535156 12.015625 -6.421875 C 12.128906 -6.304688 12.1875 -6.164062 12.1875 -6 C 12.1875 -5.863281 12.140625 -5.738281 12.046875 -5.625 C 11.609375 -5.164062 11.078125 -4.648438 10.453125 -4.078125 C 9.835938 -3.503906 9.1875 -3.007812 8.5 -2.59375 C 7.820312 -2.1875 7.140625 -1.984375 6.453125 -1.984375 C 5.953125 -1.984375 5.550781 -2.113281 5.25 -2.375 C 4.945312 -2.644531 4.796875 -3.03125 4.796875 -3.53125 C 4.796875 -3.851562 4.867188 -4.210938 5.015625 -4.609375 C 5.171875 -5.015625 5.398438 -5.445312 5.703125 -5.90625 L 7.171875 -7.953125 C 7.328125 -8.160156 7.425781 -8.34375 7.46875 -8.5 C 7.519531 -8.664062 7.546875 -8.804688 7.546875 -8.921875 C 7.546875 -9.285156 7.269531 -9.46875 6.71875 -9.46875 C 6.15625 -9.46875 5.550781 -9.289062 4.90625 -8.9375 C 4.269531 -8.582031 3.679688 -8.160156 3.140625 -7.671875 C 2.597656 -7.179688 2.171875 -6.707031 1.859375 -6.25 L -0.859375 -2.328125 C -1.066406 -2.054688 -1.304688 -1.921875 -1.578125 -1.921875 C -1.804688 -1.921875 -1.992188 -2 -2.140625 -2.15625 C -2.296875 -2.320312 -2.375 -2.503906 -2.375 -2.703125 Z M -2.375 -2.703125 "/></g></g></g></svg>