<?xml version="1.0" encoding="UTF-8"?>
<svg version="1.1" xmlns="http://www.w3.org/2000/svg" width="1060" height="362">
<path d="M0 0 C349.8 0 699.6 0 1060 0 C1060 119.46 1060 238.92 1060 362 C710.2 362 360.4 362 0 362 C0 242.54 0 123.08 0 0 Z " fill="#FEFEFE" transform="translate(0,0)"/>
<path d="M0 0 C7.20971735 3.01802122 11.14331216 10.07283849 14 17 C17.86089785 27.9306308 18.26909934 38.64149611 18.3125 50.125 C18.31644775 50.87867859 18.32039551 51.63235718 18.32446289 52.40887451 C18.35521918 64.98318248 17.14530141 76.78387398 14 89 C15.01320313 88.71125 16.02640625 88.4225 17.0703125 88.125 C18.42176313 87.74959705 19.77333201 87.37461959 21.125 87 C22.12273438 86.71382812 22.12273438 86.71382812 23.140625 86.421875 C27.1986205 85.30791545 30.79685974 84.79049768 35 85 C35.2475 84.13375 35.495 83.2675 35.75 82.375 C38.09916167 76.03226348 41.15973816 72.24407527 46.984375 68.921875 C49.96033526 67.5607769 51.79065249 67.30231576 55 68 C58.71491332 70.57186307 61.36079641 72.77177391 63 77 C63.25432144 80.35704305 63.08876634 83.62687908 63 87 C67.62 86.34 72.24 85.68 77 85 C77 82.95021932 76.99503582 80.89887773 76.89453125 78.8515625 C76.67949933 73.01498191 77.36700564 69.0877843 81.2890625 64.48828125 C82.75 63.0625 82.75 63.0625 86 61 C89.875 61.1875 89.875 61.1875 93 62 C92.67 63.32 92.34 64.64 92 66 C90.68 66 89.36 66 88 66 C84.81216727 69.52938623 84.49898355 73.01945178 84.62890625 77.58203125 C85.16771571 81.09280028 86.52533757 84.00300834 88.125 87.15234375 C89 89 89 89 89 91 C89.97582031 90.566875 90.95164062 90.13375 91.95703125 89.6875 C93.2420618 89.1247129 94.52722502 88.56222866 95.8125 88 C96.45509766 87.71382813 97.09769531 87.42765625 97.75976562 87.1328125 C100.67756469 85.86288959 102.78265714 85 106 85 C105.96519531 84.35933594 105.93039062 83.71867187 105.89453125 83.05859375 C105.71262216 77.24616528 105.90763107 73.01177034 109 68 C111.625 67 111.625 67 114 67 C115 68 115 68 115.25 70.75 C115.22077425 74.34476747 114.40595875 77.53000704 113.5 81 C111.7062527 88.32801029 111.2746768 95.48301409 112 103 C112.99 104.485 112.99 104.485 114 106 C119.35612074 105.5799121 122.22613443 104.86821221 126 101 C131.9391496 93.91164487 134.36627575 87.55234552 135.875 78.5 C136.26654963 76.36427474 136.65969561 74.22884131 137.0546875 72.09375 C137.21437012 71.16240234 137.37405273 70.23105469 137.53857422 69.27148438 C138 67 138 67 139 65 C140.65 65 142.3 65 144 65 C144 68.63 144 72.26 144 76 C144.886875 74.741875 145.77375 73.48375 146.6875 72.1875 C149.16091086 68.92236651 151.09387187 66.52434268 155 65 C159.19331992 64.47583501 161.24188119 64.53853638 164.875 66.75 C168.57544585 70.66811913 168.11487855 74.51214466 168.0625 79.75 C168.05347656 80.92046875 168.04445313 82.0909375 168.03515625 83.296875 C168.01775391 84.63492188 168.01775391 84.63492188 168 86 C168.74636719 85.83628906 169.49273438 85.67257813 170.26171875 85.50390625 C173.54381541 84.89992555 176.67010069 84.93470786 180 85 C180 84.195625 180 83.39125 180 82.5625 C181.60764518 76.83526404 185.9510545 71.82822108 191.078125 68.75390625 C193.87397967 67.65715838 196.02223307 67.69614623 199 68 C203.14878867 69.83318569 205.32637663 71.77189885 207 76 C207.24046306 79.70626758 207.1345364 83.2778263 207 87 C214.425 86.01 214.425 86.01 222 85 C222.12117188 83.57945312 222.24234375 82.15890625 222.3671875 80.6953125 C222.53598873 78.83849892 222.70528522 76.98173031 222.875 75.125 C222.95363281 74.18785156 223.03226563 73.25070313 223.11328125 72.28515625 C223.23896484 70.94130859 223.23896484 70.94130859 223.3671875 69.5703125 C223.44050293 68.74289551 223.51381836 67.91547852 223.58935547 67.06298828 C224 65 224 65 226 63 C227.32 63.33 228.64 63.66 230 64 C230 76.54 230 89.08 230 102 C230.66 102 231.32 102 232 102 C232.11770752 101.29367432 232.23541504 100.58734863 232.35668945 99.85961914 C233.04557851 96.79739617 234.07036175 94.1361281 235.29296875 91.24609375 C235.99196289 89.5919043 235.99196289 89.5919043 236.70507812 87.90429688 C237.43887695 86.18823242 237.43887695 86.18823242 238.1875 84.4375 C238.89229492 82.76204102 238.89229492 82.76204102 239.61132812 81.05273438 C242.7983046 73.55268743 246.27029567 66.24494449 250 59 C251.32 59 252.64 59 254 59 C254.03738281 60.08539063 254.07476563 61.17078125 254.11328125 62.2890625 C254.17897875 63.73440739 254.24542476 65.17971839 254.3125 66.625 C254.33505859 67.33785156 254.35761719 68.05070312 254.38085938 68.78515625 C254.61933434 73.51129654 255.45015343 76.88674386 258 81 C261.25584652 83.48472497 264.02683825 84.27579493 268 85 C268.03738281 84.19175781 268.07476563 83.38351563 268.11328125 82.55078125 C268.21189453 80.94783203 268.21189453 80.94783203 268.3125 79.3125 C268.37050781 78.25675781 268.42851563 77.20101562 268.48828125 76.11328125 C269.04542222 72.72365262 269.94658701 70.73623466 272 68 C274.625 67.125 274.625 67.125 277 67 C277.33 67.33 277.66 67.66 278 68 C277.94921875 70.00390625 277.94921875 70.00390625 277.6875 72.5625 C277.60886719 73.38878906 277.53023437 74.21507812 277.44921875 75.06640625 C277 78 277 78 275.97265625 81.7890625 C274.84313011 86.16307115 274.70234799 90.31335638 274.75 94.8125 C274.74226563 95.56208984 274.73453125 96.31167969 274.7265625 97.08398438 C274.74025622 100.91480258 274.82764408 102.74146612 277 106 C282.11875414 106 284.45252845 104.99161646 288.125 101.375 C289.44035377 99.93799501 290.73372972 98.48043861 292 97 C292.47566406 96.46246094 292.95132812 95.92492187 293.44140625 95.37109375 C296.3350772 91.7517373 297.84471646 87.96483111 299.4375 83.625 C302.60072565 75.04191732 306.96008156 66.91134148 315 62 C318.75310912 60.91859568 320.82049245 60.58717236 324.5 61.875 C326.6605544 64.9357854 326.12993445 67.23183927 325.5546875 70.8359375 C324.87948294 73.47018627 324.00885394 75.15185438 322 77 C321.34 77 320.68 77 320 77 C320.66 73.7 321.32 70.4 322 67 C315.05196936 69.26515188 312.72196155 74.61609165 309.54296875 80.86328125 C305.57949817 89.30421716 303.05184971 97.91203034 306 107.125 C307.98845594 109.3122867 307.98845594 109.3122867 311.5 109.75 C322.75636679 108.83402079 331.06113644 98.27424391 338.33764648 90.69165039 C339.04219971 89.95938232 339.74675293 89.22711426 340.47265625 88.47265625 C341.42023804 87.47117554 341.42023804 87.47117554 342.38696289 86.44946289 C344 85 344 85 346 85 C343.58156734 90.56623391 339.09293685 94.62245496 335 99 C334.11054687 99.97066406 334.11054687 99.97066406 333.203125 100.9609375 C326.82804154 107.6699539 318.97895325 114.23904231 309.5625 115.4375 C306.05596969 115.00687347 303.98135205 114.38420885 301.35546875 111.9765625 C298.33450054 107.5713466 297.27578638 102.12565939 296 97 C295.11248047 98.03060547 295.11248047 98.03060547 294.20703125 99.08203125 C293.41683594 99.98308594 292.62664062 100.88414062 291.8125 101.8125 C291.03519531 102.70582031 290.25789063 103.59914063 289.45703125 104.51953125 C286.05173946 107.95730595 282.90150554 110.42104961 277.9375 110.5 C274 110 274 110 271.625 107.875 C267.68895754 100.91123256 267.77152093 94.84444814 268 87 C266.96875 87.0825 265.9375 87.165 264.875 87.25 C260.181653 86.94720342 258.46912509 86.16075841 255 83 C251.61911187 77.51951574 250.67222626 72.30960882 250 66 C248.45412081 69.97754258 246.91349842 73.9570969 245.375 77.9375 C244.91859131 79.11707275 244.46218262 80.29664551 243.99194336 81.51196289 C241.12617075 88.95728784 238.35284958 96.42018086 235.89013672 104.00952148 C233.79237745 110.25047604 233.79237745 110.25047604 231 112 C228.91796875 111.91796875 228.91796875 111.91796875 227 111 C222.79313517 104.19429975 222.845528 95.72359984 223 88 C221.824375 88.495 221.824375 88.495 220.625 89 C216.00638131 90.27410171 211.75750644 90.16923936 207 90 C206.6596875 91.918125 206.6596875 91.918125 206.3125 93.875 C204.8120641 100.56356286 202.32292064 106.78512218 197.3125 111.5625 C193.58939763 113.87686093 191.44197872 114.52258573 187 114 C182.79331598 110.67378473 179.4212148 106.50336892 178.76147461 101.01611328 C178.70609347 98.87785478 178.73712582 96.76253444 178.8125 94.625 C178.82603516 93.88894531 178.83957031 93.15289062 178.85351562 92.39453125 C178.88855131 90.59603257 178.94234712 88.79791578 179 87 C178.31292969 87.2165625 177.62585938 87.433125 176.91796875 87.65625 C176.01691406 87.9346875 175.11585938 88.213125 174.1875 88.5 C173.29417969 88.7784375 172.40085937 89.056875 171.48046875 89.34375 C169 90 169 90 166 90 C165.814375 90.94875 165.62875 91.8975 165.4375 92.875 C163.60298987 99.26325869 159.26920321 105.69813186 153.875 109.625 C150.86878586 111.06275459 149.26880999 111.61842351 146 111 C144.1875 109.9375 144.1875 109.9375 143 108 C142.4218015 104.65929757 142.34606861 102.27199313 143.92578125 99.19921875 C147.73470848 94.13188488 152.61920469 92.01403191 158.390625 89.65234375 C161.23260486 88.18235007 161.23260486 88.18235007 162.34375 85.10546875 C162.90914812 82.42992407 163.26925209 80.09917134 163.25 77.375 C163.25515625 76.64023438 163.2603125 75.90546875 163.265625 75.1484375 C162.96781656 72.73969275 162.19513895 71.09623577 161 69 C158.21061788 68.58109782 158.21061788 68.58109782 155 69 C141.87768958 80.16221688 138.3118096 100.76216602 137 117 C136.59003725 124.49337857 136.49538005 131.99756437 136.375 139.5 C136.33670675 141.4987128 136.29764901 143.49741111 136.2578125 145.49609375 C136.16308534 150.33060781 136.07861986 155.16519829 136 160 C134.68 159.67 133.36 159.34 132 159 C131.02521788 153.2994122 130.8541672 147.78448423 130.8671875 142.0078125 C130.86623077 141.06243622 130.86527405 140.11705994 130.86428833 139.14303589 C130.86361051 137.1511834 130.8654369 135.15932866 130.86962891 133.16748047 C130.87497078 130.14155027 130.86967648 127.1157693 130.86328125 124.08984375 C130.86394234 122.14583301 130.86522413 120.20182236 130.8671875 118.2578125 C130.86516327 117.36377716 130.86313904 116.46974182 130.86105347 115.5486145 C130.88160135 109.9579489 131.29321548 104.5468898 132 99 C131.39671875 99.62648438 130.7934375 100.25296875 130.171875 100.8984375 C129.37265625 101.71570313 128.5734375 102.53296875 127.75 103.375 C126.96109375 104.18710938 126.1721875 104.99921875 125.359375 105.8359375 C122.02542128 108.89390168 119.99941652 109.89291966 115.5 110.375 C112 110 112 110 109.75 108.5625 C105.33397901 102.09618355 104.63482607 95.66865259 105 88 C103.58280758 88.62380692 102.1662694 89.2491003 100.75 89.875 C99.96109375 90.22304687 99.1721875 90.57109375 98.359375 90.9296875 C96.21131392 91.90413905 94.10170798 92.92986429 92 94 C92.04640625 94.556875 92.0928125 95.11375 92.140625 95.6875 C92.47361145 102.72778503 90.98465974 107.46864516 86.421875 112.8671875 C83.17814517 116.03786035 81.8001194 117 77.125 117 C76.09375 116.67 75.0625 116.34 74 116 C72.50409291 113.00818583 72.57256989 111.3583794 73 108 C75.73263391 102.70896052 79.02768285 98.36362631 84 95 C83.29660434 92.49034386 83.29660434 92.49034386 82 90 C79.79441554 88.97072725 78.59945801 88.83199047 76.2578125 89.48828125 C73.37872772 90.14080739 70.69908162 90.09455523 67.75 90.0625 C66.67234375 90.05347656 65.5946875 90.04445313 64.484375 90.03515625 C63.25460937 90.01775391 63.25460937 90.01775391 62 90 C62.05285156 90.86625 62.10570312 91.7325 62.16015625 92.625 C61.82339028 99.72172671 57.68121129 106.8860662 52.5625 111.75 C49.95968362 113.68631152 48.71131839 114.05474996 45.375 114.6875 C40.9673772 113.78965091 39.65978002 112.62025614 37 109 C33.56020539 102.23092626 33.65991355 95.44411447 34 88 C30.89143302 88.75376822 27.78918104 89.53092117 24.6875 90.3125 C23.80642578 90.52583984 22.92535156 90.73917969 22.01757812 90.95898438 C21.17001953 91.17490234 20.32246094 91.39082031 19.44921875 91.61328125 C18.66893311 91.80704346 17.88864746 92.00080566 17.0847168 92.20043945 C14.70446628 93.11334734 13.58719288 94.01838494 12 96 C11.01769723 98.55862344 10.14247252 101.08088116 9.3125 103.6875 C4.18293096 118.87134953 -3.21888432 136.7992062 -17.0234375 146.06640625 C-20.70154136 147.80369246 -22.96907016 147.72688899 -27 147 C-30.92679495 143.90869334 -32.63961228 141.54319061 -33.34375 136.57421875 C-33.9061457 126.18395819 -30.06622131 118.2290306 -23.80078125 110.171875 C-17.51899264 103.40207967 -10.1186316 99.17179054 -2 95 C-0.89785156 94.39671875 -0.89785156 94.39671875 0.2265625 93.78125 C2 93 2 93 5 93 C5.46642523 90.50874053 5.91893328 88.01626292 6.35546875 85.51953125 C6.79246059 83.13329094 7.2758802 80.7551747 7.80078125 78.38671875 C9.9327288 68.22950252 10.32553007 58.15546383 10.375 47.8125 C10.38267395 47.14207672 10.3903479 46.47165344 10.39825439 45.78091431 C10.51515588 32.99193119 10.12214424 17.13959341 1.25 7 C-2.24380479 5.44719787 -5.31696778 5.18825702 -9 6 C-12.06732342 7.59500818 -14.4804194 9.64839144 -17 12 C-17.58652344 12.53367187 -18.17304687 13.06734375 -18.77734375 13.6171875 C-32.99496855 28.12496791 -37.38045382 50.341154 -37.5 69.875 C-37.50966797 71.38126953 -37.50966797 71.38126953 -37.51953125 72.91796875 C-37.4170523 78.74350295 -36.55681993 82.78298467 -34 88 C-34.3125 90.4375 -34.3125 90.4375 -35 92 C-36.32 92 -37.64 92 -39 92 C-46.50531995 70.48474947 -41.84441189 45.76743043 -32.4375 25.66015625 C-26.29063664 13.46603148 -15.56684766 -2.37460388 0 0 Z " fill="#0A0A0A" transform="translate(567,106)"/>
<path d="M0 0 C0.99 0 1.98 0 3 0 C2.31221075 5.92096836 0.26697307 11.28203371 -1.6875 16.875 C-5.8697883 29.08091748 -9.07867399 41.43964438 -12 54 C-10.88077746 51.21264822 -9.77838867 48.42194153 -8.703125 45.6171875 C-2.45665169 29.41438454 5.05787296 14.86184125 20.7109375 5.98828125 C27.53594832 3.04164689 36.64431034 2.52263158 43.671875 4.90625 C51.10248794 8.79610107 55.97212603 14.67530218 58.55859375 22.7421875 C60.88180638 34.62552289 58.72538704 46.40725241 52.3125 56.625 C51.23821436 58.1054832 50.13212711 59.56326469 49 61 C48.04480469 62.21816406 48.04480469 62.21816406 47.0703125 63.4609375 C36.6062643 75.91813774 21.44853593 85.45374799 5 87 C-0.33428377 87.19490149 -5.6648559 87.11914714 -11 87 C-10.50298584 87.31114746 -10.00597168 87.62229492 -9.49389648 87.94287109 C-7.14037749 89.41804976 -4.78870789 90.8961405 -2.4375 92.375 C-1.57213623 92.91866211 -0.70677246 93.46232422 0.18481445 94.02246094 C4.81113578 96.94165734 9.38350978 99.91399819 13.88916016 103.01586914 C24.63792343 110.39232832 35.72620107 117.03548901 48.7421875 119.234375 C51 120 51 120 52.3203125 122.078125 C52.54460937 122.71234375 52.76890625 123.3465625 53 124 C52 125 52 125 50.07080078 125.03271484 C43.26160097 124.496861 37.96067459 122.65637652 31.875 119.625 C30.96266602 119.17946777 30.05033203 118.73393555 29.11035156 118.27490234 C21.24417668 114.32804841 14.09650326 109.67516598 7.01513672 104.47363281 C4.06317046 102.31491361 1.07391213 100.21010613 -1.91503906 98.10302734 C-3.38967315 97.06279879 -4.86183639 96.0190553 -6.33105469 94.97119141 C-9.81163922 92.49549344 -13.29233747 90.13100604 -17 88 C-20.02816994 103.269708 -21.09208257 119.0018581 -21.57055664 134.54150391 C-21.78459781 139.78459781 -21.78459781 139.78459781 -24 142 C-27.53571429 141.46428571 -27.53571429 141.46428571 -29 140 C-29.69495575 128.72010047 -28.36668661 117.61291472 -27 106.4375 C-26.71173664 104.03248399 -26.42602599 101.62721137 -26.14404297 99.22145081 C-25.97003611 97.74175103 -25.7922321 96.26249069 -25.60986328 94.78379822 C-24.88726647 88.90159593 -24.88726647 88.90159593 -25 83 C-25.99 82.34 -26.98 81.68 -28 81 C-28 80.01 -28 79.02 -28 78 C-26.02 78.66 -24.04 79.32 -22 80 C-22.0465271 78.49481812 -22.0465271 78.49481812 -22.09399414 76.95922852 C-21.99909568 72.96190831 -21.40186694 69.54136768 -20.49609375 65.65234375 C-20.33757431 64.96692001 -20.17905487 64.28149628 -20.01573181 63.57530212 C-19.4992657 61.36030718 -18.96966939 59.14877099 -18.4375 56.9375 C-18.16731049 55.80142303 -18.16731049 55.80142303 -17.8916626 54.64239502 C-6.3825319 6.3825319 -6.3825319 6.3825319 0 0 Z " fill="#FCFCFC" transform="translate(157,103)"/>
<path d="M0 0 C1.67542976 0.28604898 3.34385343 0.61781233 5 1 C4.33455559 5.54720345 3.28320459 9.50878395 2 14 C16.19 14 30.38 14 45 14 C45.99 15.98 45.99 15.98 47 18 C42.25 19.125 42.25 19.125 40 18 C37.0851463 17.84279903 34.19060364 17.74144346 31.2734375 17.68359375 C30.41062164 17.66281265 29.54780579 17.64203156 28.65884399 17.62062073 C25.89764507 17.55513966 23.13634962 17.49624702 20.375 17.4375 C18.50519828 17.3943134 16.63540638 17.35069907 14.765625 17.30664062 C10.17718272 17.19945976 5.58864317 17.09818825 1 17 C0.80156494 18.19423584 0.60312988 19.38847168 0.39868164 20.61889648 C-2.00863517 35.09276394 -2.00863517 35.09276394 -2.87890625 40.09765625 C-5.12916156 53.07073091 -7.1245474 65.99781886 -7.3125 79.1875 C-7.33896606 80.22982788 -7.33896606 80.22982788 -7.3659668 81.29321289 C-7.35975051 85.92208864 -6.33994303 89.03012303 -4 93 C0.96434045 92.53820089 3.33663723 91.34094237 7 88 C8.62771688 85.91239735 10.08283198 83.90609454 11.5 81.6875 C11.8909082 81.08156006 12.28181641 80.47562012 12.68457031 79.85131836 C15.41340596 75.42404905 17.2370229 71.02660645 18.75 66.0625 C20.89545402 59.02774599 22.94783993 53.802663 29.25 49.5625 C34.57809866 46.83432695 40.38795162 47.44180147 46 49 C46.66 48.01 47.32 47.02 48 46 C49.65 46.33 51.3 46.66 53 47 C52.85870713 49.41700987 52.71213513 51.83350429 52.5625 54.25 C52.52318359 54.93191406 52.48386719 55.61382812 52.44335938 56.31640625 C52.11112713 61.58100958 52.11112713 61.58100958 51.47265625 63.98828125 C50.70232364 67.26696963 50.8566814 70.58825006 50.875 73.9375 C50.87113281 74.64068359 50.86726562 75.34386719 50.86328125 76.06835938 C50.87034735 79.83812512 51.096533 83.33593938 52 87 C55.4965757 87.50991729 57.77253032 87.69092623 60.89453125 85.93359375 C66.17702929 81.64089168 69.91338812 76.23203523 73.67504883 70.62451172 C74.73899447 69.05205483 75.86457062 67.52164421 77 66 C77.66 66 78.32 66 79 66 C76.93993885 71.69307538 73.56649338 76.15920397 70 81 C69.56300781 81.60714844 69.12601563 82.21429688 68.67578125 82.83984375 C64.98342812 87.66075664 60.87305191 90.42538962 54.875 91.625 C51.56135204 90.90464175 50.20078147 89.6069612 48.078125 86.99609375 C45.0346361 81.36122844 44.72693309 75.78700508 44.875 69.5625 C44.88402344 68.83095703 44.89304687 68.09941406 44.90234375 67.34570312 C44.92563847 65.56365702 44.9614981 63.78178241 45 62 C44.50371094 62.9178125 44.00742187 63.835625 43.49609375 64.78125 C34.03410592 81.98294704 34.03410592 81.98294704 28 85 C25.0625 85.375 25.0625 85.375 22 85 C19.95691589 82.39330648 19.04553582 80.13660747 18 77 C17.5875 77.78503906 17.175 78.57007813 16.75 79.37890625 C8.69272819 94.03666635 8.69272819 94.03666635 0.6328125 96.81640625 C-1.75924278 97.25168188 -3.60453381 97.41105633 -6 97 C-8.4375 94.8125 -8.4375 94.8125 -10 92 C-10.33902344 91.42121094 -10.67804688 90.84242188 -11.02734375 90.24609375 C-12.30946756 87.28536608 -12.67832511 84.44053494 -13.125 81.25 C-13.29257812 80.07953125 -13.46015625 78.9090625 -13.6328125 77.703125 C-13.75398437 76.81109375 -13.87515625 75.9190625 -14 75 C-14.72703125 75.97839844 -14.72703125 75.97839844 -15.46875 76.9765625 C-25.67080045 90.27846674 -25.67080045 90.27846674 -33.75 91.625 C-37.59536655 90.88550643 -38.74678217 90.17119546 -41 87 C-43.21308503 81.746963 -43.42211866 76.73805043 -43.625 71.125 C-43.66367187 70.24585938 -43.70234375 69.36671875 -43.7421875 68.4609375 C-43.83581034 66.30761207 -43.91896459 64.15383586 -44 62 C-44.4125 62.83402344 -44.825 63.66804688 -45.25 64.52734375 C-54.12410206 81.81995781 -54.12410206 81.81995781 -60.95703125 84.875 C-63.61110736 85.41140275 -65.46364167 85.31441695 -67.8125 83.9375 C-69.35276291 81.42443946 -70.10033875 78.79768076 -71 76 C-71.49628906 76.66386719 -71.99257813 77.32773438 -72.50390625 78.01171875 C-81.67383895 89.93089123 -81.67383895 89.93089123 -88.0390625 91.50390625 C-90.94460217 91.75963727 -93.24695993 91.59499462 -95.58203125 89.75 C-99.04144924 85.76219828 -100.12584327 82.43136065 -100.1328125 77.2890625 C-100.13410156 76.37382812 -100.13539063 75.45859375 -100.13671875 74.515625 C-100.13285156 73.56171875 -100.12898438 72.6078125 -100.125 71.625 C-100.12886719 70.67882812 -100.13273437 69.73265625 -100.13671875 68.7578125 C-100.13542969 67.84 -100.13414062 66.9221875 -100.1328125 65.9765625 C-100.13168457 65.14205566 -100.13055664 64.30754883 -100.12939453 63.44775391 C-99.99383628 60.88340104 -99.56215884 58.5026396 -99 56 C-102.76678799 59.35679746 -105.02306971 63.07858642 -107.4375 67.4375 C-107.83074463 68.14181152 -108.22398926 68.84612305 -108.62915039 69.57177734 C-113.07651748 77.71412014 -116.08969774 86.2038398 -119 95 C-121.375 95.1875 -121.375 95.1875 -124 95 C-126.08745045 91.86882433 -126.27653996 90.93053776 -126.4140625 87.33203125 C-126.45273437 86.43935547 -126.49140625 85.54667969 -126.53125 84.62695312 C-126.5621875 83.69818359 -126.593125 82.76941406 -126.625 81.8125 C-126.68300781 80.40194336 -126.68300781 80.40194336 -126.7421875 78.96289062 C-126.83643187 76.6421229 -126.92204025 74.32136252 -127 72 C-127.63164062 72.56847656 -128.26328125 73.13695312 -128.9140625 73.72265625 C-138.25426582 81.78430148 -148.55108551 89.41565256 -161.5 88.5546875 C-165.29859418 87.71187442 -166.85067577 86.18931983 -169 83 C-169.8971875 81.6696875 -169.8971875 81.6696875 -170.8125 80.3125 C-173.42255065 73.03183241 -172.43547199 66.37397948 -169.3359375 59.39453125 C-166.33875667 54.02239134 -161.89858071 48.21196776 -156 46 C-149.67857143 46.32142857 -149.67857143 46.32142857 -147 49 C-146.53987416 53.60125843 -146.51927368 56.01931831 -148.5625 60.1875 C-152.94715697 65.24671959 -157.48196333 68.25125845 -164 70 C-164.17655168 74.50206785 -164.17699288 77.98974995 -162 82 C-158.28003979 84.47997347 -156.77714521 84.20411525 -152.51171875 83.5859375 C-142.7562732 81.3101726 -133.0376025 74.0376025 -126 67 C-125.63471561 65.51864102 -125.31931587 64.02487819 -125.02734375 62.52734375 C-124.85009766 61.62822266 -124.67285156 60.72910156 -124.49023438 59.80273438 C-124.30783203 58.85720703 -124.12542969 57.91167969 -123.9375 56.9375 C-123.75123047 55.98810547 -123.56496094 55.03871094 -123.37304688 54.06054688 C-122.91193217 51.70767953 -122.45441308 49.35416924 -122 47 C-120.0625 46.4375 -120.0625 46.4375 -118 46 C-117.67 46.33 -117.34 46.66 -117 47 C-117.09434678 49.02389066 -117.25324618 51.04480695 -117.4375 53.0625 C-118.07951308 61.05473975 -118.09365943 68.98691526 -118 77 C-117.49210937 75.9378125 -116.98421875 74.875625 -116.4609375 73.78125 C-107.27275784 54.81998461 -107.27275784 54.81998461 -100 50 C-97.375 49.6875 -97.375 49.6875 -95 50 C-93 52 -93 52 -92.76953125 54.20703125 C-92.78371094 55.06683594 -92.79789062 55.92664063 -92.8125 56.8125 C-92.81894531 57.66457031 -92.82539063 58.51664063 -92.83203125 59.39453125 C-93 62 -93 62 -93.5 64.38671875 C-94.11935741 67.62382895 -94.16974836 70.70529559 -94.1875 74 C-94.20167969 75.19625 -94.21585937 76.3925 -94.23046875 77.625 C-93.99359598 81.09378088 -93.56028648 84.43971352 -91 87 C-86.29675375 87 -83.85124149 86.2844907 -80.4375 83 C-75.20420395 77.23630232 -71.09090763 71.6702785 -69.54296875 63.9765625 C-67.75137575 57.45464841 -63.30545216 52.89066492 -58 49 C-55.66062093 47.83031047 -54.22630632 47.86635779 -51.625 47.875 C-50.46871094 47.87113281 -50.46871094 47.87113281 -49.2890625 47.8671875 C-47.0671811 47.99610212 -45.13381492 48.38616283 -43 49 C-42.34 48.01 -41.68 47.02 -41 46 C-39.35 46.33 -37.7 46.66 -36 47 C-35.8275384 51.5702325 -36.04833302 55.58564407 -37 60.0625 C-38.77521299 69.20676261 -39.79806927 78.73314186 -35 87 C-29.96314635 87 -27.57591218 86.03325575 -23.9375 82.5 C-21.98106678 80.53965553 -21.98106678 80.53965553 -20 78 C-19.25411621 77.16275391 -19.25411621 77.16275391 -18.49316406 76.30859375 C-12.74944407 69.05998421 -12.57974684 60.85725824 -11.875 52 C-11.61734882 48.99839619 -11.34333274 45.99878027 -11.0546875 43 C-10.94988068 41.89724731 -10.94988068 41.89724731 -10.84295654 40.7722168 C-9.9923052 32.67343165 -8.06178949 24.86391645 -6 17 C-6.65371582 17.06058594 -7.30743164 17.12117188 -7.98095703 17.18359375 C-32.00380161 19.38016122 -32.00380161 19.38016122 -44 19 C-44.495 17.02 -44.495 17.02 -45 15 C-31.65738241 14.33490333 -18.36004057 13.83860354 -5 14 C-4.79890625 12.11087891 -4.79890625 12.11087891 -4.59375 10.18359375 C-4.15901487 6.09959157 -2.96929563 2.96929563 0 0 Z " fill="#0A0A0A" transform="translate(398,125)"/>
<path d="M0 0 C7.20971735 3.01802122 11.14331216 10.07283849 14 17 C17.86089785 27.9306308 18.26909934 38.64149611 18.3125 50.125 C18.31644775 50.87867859 18.32039551 51.63235718 18.32446289 52.40887451 C18.35521918 64.98318248 17.14530141 76.78387398 14 89 C15.01320313 88.71125 16.02640625 88.4225 17.0703125 88.125 C18.42176313 87.74959705 19.77333201 87.37461959 21.125 87 C22.12273438 86.71382812 22.12273438 86.71382812 23.140625 86.421875 C27.39265028 85.25465237 30.46641171 85 35 85 C35 89.95 35 94.9 35 100 C34.67 100 34.34 100 34 100 C34 96.04 34 92.08 34 88 C30.89224467 88.75820839 27.78936839 89.53087396 24.6875 90.3125 C23.80642578 90.52583984 22.92535156 90.73917969 22.01757812 90.95898438 C21.17001953 91.17490234 20.32246094 91.39082031 19.44921875 91.61328125 C18.66893311 91.80704346 17.88864746 92.00080566 17.0847168 92.20043945 C14.70446628 93.11334734 13.58719288 94.01838494 12 96 C11.01769723 98.55862344 10.14247252 101.08088116 9.3125 103.6875 C4.18293096 118.87134953 -3.21888432 136.7992062 -17.0234375 146.06640625 C-20.70154136 147.80369246 -22.96907016 147.72688899 -27 147 C-30.92679495 143.90869334 -32.63961228 141.54319061 -33.34375 136.57421875 C-33.9061457 126.18395819 -30.06622131 118.2290306 -23.80078125 110.171875 C-17.51899264 103.40207967 -10.1186316 99.17179054 -2 95 C-0.89785156 94.39671875 -0.89785156 94.39671875 0.2265625 93.78125 C2 93 2 93 5 93 C5.46642523 90.50874053 5.91893328 88.01626292 6.35546875 85.51953125 C6.79246059 83.13329094 7.2758802 80.7551747 7.80078125 78.38671875 C9.9327288 68.22950252 10.32553007 58.15546383 10.375 47.8125 C10.38267395 47.14207672 10.3903479 46.47165344 10.39825439 45.78091431 C10.51515588 32.99193119 10.12214424 17.13959341 1.25 7 C-2.24380479 5.44719787 -5.31696778 5.18825702 -9 6 C-12.06732342 7.59500818 -14.4804194 9.64839144 -17 12 C-17.58652344 12.53367187 -18.17304687 13.06734375 -18.77734375 13.6171875 C-32.99496855 28.12496791 -37.38045382 50.341154 -37.5 69.875 C-37.50966797 71.38126953 -37.50966797 71.38126953 -37.51953125 72.91796875 C-37.4170523 78.74350295 -36.55681993 82.78298467 -34 88 C-34.3125 90.4375 -34.3125 90.4375 -35 92 C-36.32 92 -37.64 92 -39 92 C-46.50531995 70.48474947 -41.84441189 45.76743043 -32.4375 25.66015625 C-26.29063664 13.46603148 -15.56684766 -2.37460388 0 0 Z " fill="#0E0E0E" transform="translate(567,106)"/>
<path d="M0 0 C0.99 0 1.98 0 3 0 C2.31221075 5.92096836 0.26697307 11.28203371 -1.6875 16.875 C-5.8697883 29.08091748 -9.07867399 41.43964438 -12 54 C-10.88077746 51.21264822 -9.77838867 48.42194153 -8.703125 45.6171875 C-2.45665169 29.41438454 5.05787296 14.86184125 20.7109375 5.98828125 C27.53594832 3.04164689 36.64431034 2.52263158 43.671875 4.90625 C51.10248794 8.79610107 55.97212603 14.67530218 58.55859375 22.7421875 C60.88180638 34.62552289 58.72538704 46.40725241 52.3125 56.625 C51.23821436 58.1054832 50.13212711 59.56326469 49 61 C48.04480469 62.21816406 48.04480469 62.21816406 47.0703125 63.4609375 C36.6062643 75.91813774 21.44853593 85.45374799 5 87 C-0.33428377 87.19490149 -5.6648559 87.11914714 -11 87 C-10.50298584 87.31114746 -10.00597168 87.62229492 -9.49389648 87.94287109 C-7.14037749 89.41804976 -4.78870789 90.8961405 -2.4375 92.375 C-1.57213623 92.91866211 -0.70677246 93.46232422 0.18481445 94.02246094 C4.81113578 96.94165734 9.38350978 99.91399819 13.88916016 103.01586914 C24.63792343 110.39232832 35.72620107 117.03548901 48.7421875 119.234375 C51 120 51 120 52.3203125 122.078125 C52.54460937 122.71234375 52.76890625 123.3465625 53 124 C52 125 52 125 50.07080078 125.03271484 C43.26160097 124.496861 37.96067459 122.65637652 31.875 119.625 C30.96266602 119.17946777 30.05033203 118.73393555 29.11035156 118.27490234 C21.24417668 114.32804841 14.09650326 109.67516598 7.01513672 104.47363281 C4.06317046 102.31491361 1.07391213 100.21010613 -1.91503906 98.10302734 C-3.38967315 97.06279879 -4.86183639 96.0190553 -6.33105469 94.97119141 C-9.81163922 92.49549344 -13.29233747 90.13100604 -17 88 C-20.02816994 103.269708 -21.09208257 119.0018581 -21.57055664 134.54150391 C-21.78459781 139.78459781 -21.78459781 139.78459781 -24 142 C-27.53571429 141.46428571 -27.53571429 141.46428571 -29 140 C-29.69495575 128.72010047 -28.36668661 117.61291472 -27 106.4375 C-26.71173664 104.03248399 -26.42602599 101.62721137 -26.14404297 99.22145081 C-25.97003611 97.74175103 -25.7922321 96.26249069 -25.60986328 94.78379822 C-24.88726647 88.90159593 -24.88726647 88.90159593 -25 83 C-25.99 82.34 -26.98 81.68 -28 81 C-28 80.01 -28 79.02 -28 78 C-26.02 78.66 -24.04 79.32 -22 80 C-22.0465271 78.49481812 -22.0465271 78.49481812 -22.09399414 76.95922852 C-21.99909568 72.96190831 -21.40186694 69.54136768 -20.49609375 65.65234375 C-20.33757431 64.96692001 -20.17905487 64.28149628 -20.01573181 63.57530212 C-19.4992657 61.36030718 -18.96966939 59.14877099 -18.4375 56.9375 C-18.16731049 55.80142303 -18.16731049 55.80142303 -17.8916626 54.64239502 C-6.3825319 6.3825319 -6.3825319 6.3825319 0 0 Z M7.5625 22.875 C6.48162109 24.38707031 6.48162109 24.38707031 5.37890625 25.9296875 C-0.90978551 35.99832018 -4.34274668 47.57708226 -7.67016602 58.88061523 C-8.32184022 61.09422693 -8.98511824 63.3041126 -9.65039062 65.51367188 C-10.07617812 66.93730358 -10.50133255 68.36112481 -10.92578125 69.78515625 C-11.21791252 70.76332054 -11.21791252 70.76332054 -11.51594543 71.76124573 C-12.5109474 75.1470906 -13.49027611 78.5038843 -14 82 C-11.76684695 84.23315305 -6.74169694 83.29094793 -3.75 83.3125 C14.05705993 83.3125 27.83700663 76.58135088 40.78125 64.3515625 C47.81052168 56.90152456 54.14676822 47.45208931 55 37 C55.06316406 36.26136719 55.12632812 35.52273437 55.19140625 34.76171875 C55.5722 26.8633193 53.49629406 19.96241733 48.6875 13.625 C44.21963894 9.26104269 40.54316526 6.81434178 34.3125 6.375 C23.35137498 6.81076338 13.62187861 14.21257282 7.5625 22.875 Z " fill="#0E0E0E" transform="translate(157,103)"/>
<path d="M0 0 C0.99 0.33 1.98 0.66 3 1 C3.05607422 2.62808594 3.05607422 2.62808594 3.11328125 4.2890625 C3.17897875 5.73440739 3.24542476 7.17971839 3.3125 8.625 C3.34633789 9.69427734 3.34633789 9.69427734 3.38085938 10.78515625 C3.61933434 15.51129654 4.45015343 18.88674386 7 23 C10.25584652 25.48472497 13.02683825 26.27579493 17 27 C17.03738281 26.19175781 17.07476563 25.38351563 17.11328125 24.55078125 C17.17902344 23.48214844 17.24476563 22.41351563 17.3125 21.3125 C17.39951172 19.72888672 17.39951172 19.72888672 17.48828125 18.11328125 C18.04542222 14.72365262 18.94658701 12.73623466 21 10 C23.625 9.125 23.625 9.125 26 9 C26.495 9.495 26.495 9.495 27 10 C26.94921875 12.00390625 26.94921875 12.00390625 26.6875 14.5625 C26.60886719 15.38878906 26.53023437 16.21507812 26.44921875 17.06640625 C26 20 26 20 24.97265625 23.7890625 C23.84313011 28.16307115 23.70234799 32.31335638 23.75 36.8125 C23.74226562 37.56208984 23.73453125 38.31167969 23.7265625 39.08398438 C23.74025622 42.91480258 23.82764408 44.74146612 26 48 C31.11875414 48 33.45252845 46.99161646 37.125 43.375 C38.44035377 41.93799501 39.73372972 40.48043861 41 39 C41.47566406 38.46246094 41.95132813 37.92492187 42.44140625 37.37109375 C45.3350772 33.7517373 46.84471646 29.96483111 48.4375 25.625 C51.60072565 17.04191732 55.96008156 8.91134148 64 4 C67.75310912 2.91859568 69.82049245 2.58717236 73.5 3.875 C75.6605544 6.9357854 75.12993445 9.23183927 74.5546875 12.8359375 C73.87948294 15.47018627 73.00885394 17.15185438 71 19 C70.34 19 69.68 19 69 19 C69.66 15.7 70.32 12.4 71 9 C64.05196936 11.26515188 61.72196155 16.61609165 58.54296875 22.86328125 C54.57949817 31.30421716 52.05184971 39.91203034 55 49.125 C56.98845594 51.3122867 56.98845594 51.3122867 60.5 51.75 C71.75636679 50.83402079 80.06113644 40.27424391 87.33764648 32.69165039 C88.04219971 31.95938232 88.74675293 31.22711426 89.47265625 30.47265625 C90.10437744 29.80500244 90.73609863 29.13734863 91.38696289 28.44946289 C93 27 93 27 95 27 C92.58156734 32.56623391 88.09293685 36.62245496 84 41 C83.40703125 41.64710938 82.8140625 42.29421875 82.203125 42.9609375 C75.82804154 49.6699539 67.97895325 56.23904231 58.5625 57.4375 C55.05596969 57.00687347 52.98135205 56.38420885 50.35546875 53.9765625 C47.33450054 49.5713466 46.27578638 44.12565939 45 39 C44.40832031 39.68707031 43.81664062 40.37414062 43.20703125 41.08203125 C42.02173828 42.43361328 42.02173828 42.43361328 40.8125 43.8125 C40.03519531 44.70582031 39.25789062 45.59914062 38.45703125 46.51953125 C35.05173946 49.95730595 31.90150554 52.42104961 26.9375 52.5 C23 52 23 52 20.625 49.875 C16.68895754 42.91123256 16.77152093 36.84444814 17 29 C15.453125 29.12375 15.453125 29.12375 13.875 29.25 C9.181653 28.94720342 7.46912509 28.16075841 4 25 C0.61911187 19.51951574 -0.32777374 14.30960882 -1 8 C-2.54587919 11.97754258 -4.08650158 15.9570969 -5.625 19.9375 C-6.08140869 21.11707275 -6.53781738 22.29664551 -7.00805664 23.51196289 C-9.87382925 30.95728784 -12.64715042 38.42018086 -15.10986328 46.00952148 C-17.20762255 52.25047604 -17.20762255 52.25047604 -20 54 C-22.08203125 53.91796875 -22.08203125 53.91796875 -24 53 C-28.20686483 46.19429975 -28.154472 37.72359984 -28 30 C-29.32 29.67 -30.64 29.34 -32 29 C-31.01 28.34 -30.02 27.68 -29 27 C-28.43401593 24.91549945 -28.43401593 24.91549945 -28.33984375 22.5 C-28.2325293 21.1696875 -28.2325293 21.1696875 -28.12304688 19.8125 C-28.06181641 18.884375 -28.00058594 17.95625 -27.9375 17 C-27.80887098 15.16608133 -27.67251995 13.33268301 -27.52734375 11.5 C-27.47312256 10.6853125 -27.41890137 9.870625 -27.36303711 9.03125 C-27 7 -27 7 -25 5 C-23.68 5.33 -22.36 5.66 -21 6 C-21 18.54 -21 31.08 -21 44 C-20.34 44 -19.68 44 -19 44 C-18.88229248 43.29367432 -18.76458496 42.58734863 -18.64331055 41.85961914 C-17.95442149 38.79739617 -16.92963825 36.1361281 -15.70703125 33.24609375 C-15.24103516 32.14330078 -14.77503906 31.04050781 -14.29492188 29.90429688 C-13.80572266 28.76025391 -13.31652344 27.61621094 -12.8125 26.4375 C-12.10770508 24.76204102 -12.10770508 24.76204102 -11.38867188 23.05273438 C-2.7699644 2.7699644 -2.7699644 2.7699644 0 0 Z " fill="#0B0B0B" transform="translate(818,164)"/>
<path d="M0 0 C4.0589816 -0.3183515 6.3474968 -0.39717586 9.875 1.75 C13.57544585 5.66811913 13.11487855 9.51214466 13.0625 14.75 C13.05347656 15.92046875 13.04445313 17.0909375 13.03515625 18.296875 C13.02355469 19.18890625 13.01195312 20.0809375 13 21 C13.74636719 20.83628906 14.49273438 20.67257813 15.26171875 20.50390625 C18.54381541 19.89992555 21.67010069 19.93470786 25 20 C25 19.195625 25 18.39125 25 17.5625 C26.60764518 11.83526404 30.9510545 6.82822108 36.078125 3.75390625 C38.87397967 2.65715838 41.02223307 2.69614623 44 3 C48.14878867 4.83318569 50.32637663 6.77189885 52 11 C52.24046306 14.70626758 52.1345364 18.2778263 52 22 C56.29 21.67 60.58 21.34 65 21 C65.495 22.485 65.495 22.485 66 24 C62.84493858 24.93619813 60.03413498 25.1057123 56.75 25.0625 C55.85796875 25.05347656 54.9659375 25.04445312 54.046875 25.03515625 C53.37140625 25.02355469 52.6959375 25.01195312 52 25 C51.6596875 26.918125 51.6596875 26.918125 51.3125 28.875 C49.8120641 35.56356286 47.32292064 41.78512218 42.3125 46.5625 C38.58939763 48.87686093 36.44197872 49.52258573 32 49 C27.79331598 45.67378473 24.4212148 41.50336892 23.76147461 36.01611328 C23.70609347 33.87785478 23.73712582 31.76253444 23.8125 29.625 C23.83280273 28.52091797 23.83280273 28.52091797 23.85351562 27.39453125 C23.88855131 25.59603257 23.94234712 23.79791578 24 22 C23.31292969 22.2165625 22.62585938 22.433125 21.91796875 22.65625 C21.01691406 22.9346875 20.11585938 23.213125 19.1875 23.5 C18.29417969 23.7784375 17.40085937 24.056875 16.48046875 24.34375 C14 25 14 25 11 25 C10.814375 25.94875 10.62875 26.8975 10.4375 27.875 C8.60298987 34.26325869 4.26920321 40.69813186 -1.125 44.625 C-4.13121414 46.06275459 -5.73119001 46.61842351 -9 46 C-10.8125 44.9375 -10.8125 44.9375 -12 43 C-12.5781985 39.65929757 -12.65393139 37.27199313 -11.07421875 34.19921875 C-7.26529152 29.13188488 -2.38079531 27.01403191 3.390625 24.65234375 C6.23260486 23.18235007 6.23260486 23.18235007 7.34375 20.10546875 C7.90914812 17.42992407 8.26925209 15.09917134 8.25 12.375 C8.25515625 11.64023438 8.2603125 10.90546875 8.265625 10.1484375 C7.96091157 7.6838436 7.34844782 6.08229698 6 4 C3.44480079 3.18828772 3.44480079 3.18828772 1 3 C0.67 2.01 0.34 1.02 0 0 Z " fill="#0A0A0A" transform="translate(722,171)"/>
<path d="M0 0 C2.475 0.495 2.475 0.495 5 1 C4.85870713 3.41700987 4.71213513 5.83350429 4.5625 8.25 C4.52318359 8.93191406 4.48386719 9.61382812 4.44335938 10.31640625 C4.11112713 15.58100958 4.11112713 15.58100958 3.47265625 17.98828125 C2.70232364 21.26696963 2.8566814 24.58825006 2.875 27.9375 C2.87113281 28.64068359 2.86726563 29.34386719 2.86328125 30.06835938 C2.87034735 33.83812512 3.096533 37.33593938 4 41 C7.4965757 41.50991729 9.77253032 41.69092623 12.89453125 39.93359375 C18.17702929 35.64089168 21.91338812 30.23203523 25.67504883 24.62451172 C26.73899447 23.05205483 27.86457062 21.52164421 29 20 C29.66 20 30.32 20 31 20 C28.93993885 25.69307538 25.56649338 30.15920397 22 35 C21.56300781 35.60714844 21.12601562 36.21429688 20.67578125 36.83984375 C16.98342812 41.66075664 12.87305191 44.42538962 6.875 45.625 C3.56135204 44.90464175 2.20078147 43.6069612 0.078125 40.99609375 C-2.9653639 35.36122844 -3.27306691 29.78700508 -3.125 23.5625 C-3.11597656 22.83095703 -3.10695313 22.09941406 -3.09765625 21.34570312 C-3.07436153 19.56365702 -3.0385019 17.78178241 -3 16 C-3.49628906 16.9178125 -3.99257813 17.835625 -4.50390625 18.78125 C-13.96589408 35.98294704 -13.96589408 35.98294704 -20 39 C-22.9375 39.375 -22.9375 39.375 -26 39 C-28.04308411 36.39330648 -28.95446418 34.13660747 -30 31 C-30.4125 31.78503906 -30.825 32.57007813 -31.25 33.37890625 C-35.01426868 40.22685038 -38.69202002 45.34684074 -45 50 C-45.66 49.34 -46.32 48.68 -47 48 C-45.9790625 47.071875 -45.9790625 47.071875 -44.9375 46.125 C-37.54686344 38.73436344 -31.93217725 29.48693234 -29.0625 19.5 C-27.050798 12.70855644 -24.82409913 7.63060334 -18.75 3.5625 C-13.42190134 0.83432695 -7.61204838 1.44180147 -2 3 C-1.34 2.01 -0.68 1.02 0 0 Z " fill="#0E0E0E" transform="translate(446,171)"/>
<path d="M0 0 C1.65 0 3.3 0 5 0 C5 3.63 5 7.26 5 11 C5.928125 9.72125 6.85625 8.4425 7.8125 7.125 C9.81064318 4.37200273 11.11470214 2.92353191 14 1 C14.99 1 15.98 1 17 1 C16 4 16 4 13.66015625 6.28125 C-3.08512035 23.39536529 -2.26902566 52.31464109 -2.625 74.5 C-2.66329325 76.4987128 -2.70235099 78.49741111 -2.7421875 80.49609375 C-2.83691466 85.33060781 -2.92138014 90.16519829 -3 95 C-4.32 94.67 -5.64 94.34 -7 94 C-7.97478212 88.2994122 -8.1458328 82.78448423 -8.1328125 77.0078125 C-8.13424759 75.58974808 -8.13424759 75.58974808 -8.13571167 74.14303589 C-8.13638949 72.1511834 -8.1345631 70.15932866 -8.13037109 68.16748047 C-8.12502922 65.14155027 -8.13032352 62.1157693 -8.13671875 59.08984375 C-8.13605766 57.14583301 -8.13477587 55.20182236 -8.1328125 53.2578125 C-8.13483673 52.36377716 -8.13686096 51.46974182 -8.13894653 50.5486145 C-8.11839865 44.9579489 -7.70678452 39.5468898 -7 34 C-7.60328125 34.62648437 -8.2065625 35.25296875 -8.828125 35.8984375 C-9.62734375 36.71570313 -10.4265625 37.53296875 -11.25 38.375 C-12.43335938 39.59316406 -12.43335938 39.59316406 -13.640625 40.8359375 C-16.97457872 43.89390168 -19.00058348 44.89291966 -23.5 45.375 C-27 45 -27 45 -29.25 43.5625 C-33.66602099 37.09618355 -34.36517393 30.66865259 -34 23 C-35.32 22.67 -36.64 22.34 -38 22 C-37.34 21.34 -36.68 20.68 -36 20 C-35.01 20 -34.02 20 -33 20 C-33.03480469 19.35933594 -33.06960938 18.71867187 -33.10546875 18.05859375 C-33.28737784 12.24616528 -33.09236893 8.01177034 -30 3 C-27.375 2 -27.375 2 -25 2 C-24 3 -24 3 -23.75 5.75 C-23.77922575 9.34476747 -24.59404125 12.53000704 -25.5 16 C-27.2937473 23.32801029 -27.7253232 30.48301409 -27 38 C-26.34 38.99 -25.68 39.98 -25 41 C-19.64387926 40.5799121 -16.77386557 39.86821221 -13 36 C-7.0608504 28.91164487 -4.63372425 22.55234552 -3.125 13.5 C-2.73345037 11.36427474 -2.34030439 9.22884131 -1.9453125 7.09375 C-1.78562988 6.16240234 -1.62594727 5.23105469 -1.46142578 4.27148438 C-1 2 -1 2 0 0 Z " fill="#0E0E0E" transform="translate(706,171)"/>
<path d="M0 0 C1.67542976 0.28604898 3.34385343 0.61781233 5 1 C4.33455559 5.54720345 3.28320459 9.50878395 2 14 C16.19 14 30.38 14 45 14 C45.99 15.98 45.99 15.98 47 18 C42.25 19.125 42.25 19.125 40 18 C37.0851463 17.84279903 34.19060364 17.74144346 31.2734375 17.68359375 C30.41062164 17.66281265 29.54780579 17.64203156 28.65884399 17.62062073 C25.89764507 17.55513966 23.13634962 17.49624702 20.375 17.4375 C18.50519828 17.3943134 16.63540638 17.35069907 14.765625 17.30664062 C10.17718272 17.19945976 5.58864317 17.09818825 1 17 C0.80156494 18.19423584 0.60312988 19.38847168 0.39868164 20.61889648 C-2.00863517 35.09276394 -2.00863517 35.09276394 -2.87890625 40.09765625 C-5.12916156 53.07073091 -7.1245474 65.99781886 -7.3125 79.1875 C-7.33014404 79.88238525 -7.34778809 80.57727051 -7.3659668 81.29321289 C-7.35975051 85.92208864 -6.33994303 89.03012303 -4 93 C-2.02 93 -0.04 93 2 93 C2 93.99 2 94.98 2 96 C-0.87470493 97.43735246 -2.81894588 97.38172649 -6 97 C-10.70954151 92.29045849 -12.21707318 87.73519157 -13.125 81.25 C-13.29257812 80.07953125 -13.46015625 78.9090625 -13.6328125 77.703125 C-13.75398438 76.81109375 -13.87515625 75.9190625 -14 75 C-14.72703125 75.97839844 -14.72703125 75.97839844 -15.46875 76.9765625 C-19.79832273 82.62165926 -24.03827537 87.09950995 -30 91 C-30.33 90.34 -30.66 89.68 -31 89 C-30.360625 88.38125 -29.72125 87.7625 -29.0625 87.125 C-26.42747423 84.48242401 -23.89398193 81.75321027 -21.375 79 C-20.61960937 78.175 -19.86421875 77.35 -19.0859375 76.5 C-15.02934204 71.63816274 -13.51645829 67.73081736 -12.97265625 61.453125 C-12.89760361 60.72365662 -12.82255096 59.99418823 -12.745224 59.24261475 C-12.50601941 56.91273009 -12.28241978 54.58177869 -12.0625 52.25 C-10.92251462 40.20239801 -9.05629013 28.71934312 -6 17 C-6.65371582 17.06058594 -7.30743164 17.12117188 -7.98095703 17.18359375 C-32.00380161 19.38016122 -32.00380161 19.38016122 -44 19 C-44.33 17.68 -44.66 16.36 -45 15 C-31.65738241 14.33490333 -18.36004057 13.83860354 -5 14 C-4.79890625 12.11087891 -4.79890625 12.11087891 -4.59375 10.18359375 C-4.15901487 6.09959157 -2.96929563 2.96929563 0 0 Z " fill="#0C0C0C" transform="translate(398,125)"/>
<path d="M0 0 C2.475 0.495 2.475 0.495 5 1 C5.1724616 5.5702325 4.95166698 9.58564407 4 14.0625 C2.2686298 22.98092493 0.96189041 33.03692157 6 41 C8.58414426 41.96906827 8.58414426 41.96906827 11 42 C10.67 42.99 10.34 43.98 10 45 C6.5094048 45.31732684 4.64414084 45.46521283 1.75 43.375 C-2.33266492 37.83424046 -2.38567512 31.74632155 -2.625 25.125 C-2.66367187 24.24585938 -2.70234375 23.36671875 -2.7421875 22.4609375 C-2.83581034 20.30761207 -2.91896459 18.15383586 -3 16 C-3.4125 16.83402344 -3.825 17.66804688 -4.25 18.52734375 C-13.12410206 35.81995781 -13.12410206 35.81995781 -19.95703125 38.875 C-22.61110736 39.41140275 -24.46364167 39.31441695 -26.8125 37.9375 C-28.35138713 35.42668415 -29.08969511 32.79160165 -30 30 C-30.66 29.67 -31.32 29.34 -32 29 C-31.71125 28.34 -31.4225 27.68 -31.125 27 C-29.88318379 23.91395164 -29.88318379 23.91395164 -29.1875 20.1875 C-27.36046573 12.68108015 -23.13265661 7.49728152 -17 3 C-14.66062093 1.83031047 -13.22630632 1.86635779 -10.625 1.875 C-9.46871094 1.87113281 -9.46871094 1.87113281 -8.2890625 1.8671875 C-6.0671811 1.99610212 -4.13381492 2.38616283 -2 3 C-1.34 2.01 -0.68 1.02 0 0 Z " fill="#090909" transform="translate(357,171)"/>
<path d="M0 0 C1 2 1 2 0.61376953 3.79321289 C-11.62179799 40.27514719 -11.62179799 40.27514719 -23 48 C-26.23828125 48.21484375 -26.23828125 48.21484375 -29 48 C-32.08034029 42.8294288 -34.3471941 38.12071649 -33 32 C-27.35528998 15.70575611 -14.62603688 7.31301844 0 0 Z " fill="#FAFAFA" transform="translate(570,202)"/>
<path d="M0 0 C2 2 2 2 2.375 5.75 C2.23870636 10.18355195 0.94063469 12.60695997 -2 16 C-5.98044975 19.47927932 -9.85205491 21.618844 -15 23 C-15.17655168 27.50206785 -15.17699288 30.98974995 -13 35 C-9.28420139 37.47719907 -7.78752906 37.19836309 -3.52734375 36.59765625 C4.15162674 34.78176369 10.21818605 30.35155548 16.08984375 25.2578125 C16.72019531 24.84273437 17.35054688 24.42765625 18 24 C18.99 24.33 19.98 24.66 21 25 C14.03384101 32.66277489 4.41490971 39.99490994 -6.0546875 41.4140625 C-10.96000399 41.64193784 -13.9612408 41.72077169 -18.0625 38.875 C-18.701875 37.92625 -19.34125 36.9775 -20 36 C-20.598125 35.113125 -21.19625 34.22625 -21.8125 33.3125 C-24.42255065 26.03183241 -23.43547199 19.37397948 -20.3359375 12.39453125 C-15.72046816 4.1217748 -9.95435096 -2.44163325 0 0 Z " fill="#0B0B0B" transform="translate(249,172)"/>
<path d="M0 0 C1.03125 0.268125 2.0625 0.53625 3.125 0.8125 C2.795 2.1325 2.465 3.4525 2.125 4.8125 C0.805 4.8125 -0.515 4.8125 -1.875 4.8125 C-5.06283273 8.34188623 -5.37601645 11.83195178 -5.24609375 16.39453125 C-4.70728429 19.90530028 -3.34966243 22.81550834 -1.75 25.96484375 C-0.875 27.8125 -0.875 27.8125 -0.875 29.8125 C0.28128906 29.25369141 0.28128906 29.25369141 1.4609375 28.68359375 C2.46382812 28.21050781 3.46671875 27.73742187 4.5 27.25 C5.49773438 26.77433594 6.49546875 26.29867187 7.5234375 25.80859375 C8.38195312 25.47988281 9.24046875 25.15117187 10.125 24.8125 C10.785 25.1425 11.445 25.4725 12.125 25.8125 C12.125 26.4725 12.125 27.1325 12.125 27.8125 C7.175 30.2875 7.175 30.2875 2.125 32.8125 C2.24875 34.7925 2.24875 34.7925 2.375 36.8125 C2.34629946 42.90658091 0.45241344 47.05877816 -3.453125 51.6796875 C-6.69685483 54.85036035 -8.0748806 55.8125 -12.75 55.8125 C-13.78125 55.4825 -14.8125 55.1525 -15.875 54.8125 C-17.37090709 51.82068583 -17.30243011 50.1708794 -16.875 46.8125 C-14.14236609 41.52146052 -10.84731715 37.17612631 -5.875 33.8125 C-6.57839566 31.30284386 -6.57839566 31.30284386 -7.875 28.8125 C-10.36976051 27.76631011 -12.14356911 27.8125 -14.875 27.8125 C-14.545 27.235 -14.215 26.6575 -13.875 26.0625 C-12.60680713 23.20906604 -12.82952454 20.73885187 -12.98046875 17.6640625 C-13.19550067 11.82748191 -12.50799436 7.9002843 -8.5859375 3.30078125 C-5.59936485 0.386078 -4.19754116 -0.20310683 0 0 Z " fill="#0D0D0D" transform="translate(656.875,167.1875)"/>
<path d="M0 0 C4.0589816 -0.3183515 6.3474968 -0.39717586 9.875 1.75 C13.57544585 5.66811913 13.11487855 9.51214466 13.0625 14.75 C13.05347656 15.92046875 13.04445313 17.0909375 13.03515625 18.296875 C13.02355469 19.18890625 13.01195312 20.0809375 13 21 C16.3 20.67 19.6 20.34 23 20 C22.505 21.485 22.505 21.485 22 23 C18.37 23.66 14.74 24.32 11 25 C10.814375 25.94875 10.62875 26.8975 10.4375 27.875 C8.60298987 34.26325869 4.26920321 40.69813186 -1.125 44.625 C-4.13121414 46.06275459 -5.73119001 46.61842351 -9 46 C-10.8125 44.9375 -10.8125 44.9375 -12 43 C-12.5781985 39.65929757 -12.65393139 37.27199313 -11.07421875 34.19921875 C-7.26529152 29.13188488 -2.38079531 27.01403191 3.390625 24.65234375 C6.23260486 23.18235007 6.23260486 23.18235007 7.34375 20.10546875 C7.90914812 17.42992407 8.26925209 15.09917134 8.25 12.375 C8.25515625 11.64023438 8.2603125 10.90546875 8.265625 10.1484375 C7.96091157 7.6838436 7.34844782 6.08229698 6 4 C3.44480079 3.18828772 3.44480079 3.18828772 1 3 C0.67 2.01 0.34 1.02 0 0 Z " fill="#0D0D0D" transform="translate(722,171)"/>
<path d="M0 0 C1.32 0.33 2.64 0.66 4 1 C4 13.54 4 26.08 4 39 C4.66 39 5.32 39 6 39 C6.12979248 38.26861816 6.25958496 37.53723633 6.39331055 36.78369141 C7.34139152 32.43358305 9.10174907 28.47335067 10.8125 24.375 C11.15603516 23.51648438 11.49957031 22.65796875 11.85351562 21.7734375 C12.19705078 20.9484375 12.54058594 20.1234375 12.89453125 19.2734375 C13.20237549 18.52497559 13.51021973 17.77651367 13.82739258 17.00537109 C15.20459503 14.65010543 16.74065702 13.49087705 19 12 C17.52112188 19.56226324 15.18019204 26.63511506 12.5625 33.875 C12.16740234 35.00164062 11.77230469 36.12828125 11.36523438 37.2890625 C10.97787109 38.36671875 10.59050781 39.444375 10.19140625 40.5546875 C9.84279541 41.52905762 9.49418457 42.50342773 9.13500977 43.50732422 C8.0204105 45.95517505 7.11727099 47.36288841 5 49 C2.91796875 48.91796875 2.91796875 48.91796875 1 48 C-3.20686483 41.19429975 -3.154472 32.72359984 -3 25 C-4.32 24.67 -5.64 24.34 -7 24 C-6.01 23.34 -5.02 22.68 -4 22 C-3.43401593 19.91549945 -3.43401593 19.91549945 -3.33984375 17.5 C-3.2325293 16.1696875 -3.2325293 16.1696875 -3.12304688 14.8125 C-3.06181641 13.884375 -3.00058594 12.95625 -2.9375 12 C-2.80887098 10.16608133 -2.67251995 8.33268301 -2.52734375 6.5 C-2.47312256 5.6853125 -2.41890137 4.870625 -2.36303711 4.03125 C-2 2 -2 2 0 0 Z " fill="#0D0D0D" transform="translate(793,169)"/>
<path d="M0 0 C0.99 0 1.98 0 3 0 C2.89300781 0.74765625 2.78601563 1.4953125 2.67578125 2.265625 C2.49595703 3.74289063 2.49595703 3.74289063 2.3125 5.25 C2.12107422 6.71179688 2.12107422 6.71179688 1.92578125 8.203125 C2.01414432 11.53301746 2.66661938 12.67195892 5 15 C5.99 15.33 6.98 15.66 8 16 C7.6266614 23.84011057 5.6283995 29.6749478 0.53515625 35.74609375 C-1.83755175 37.68410716 -4.05310706 37.19645953 -7 37 C-11.02397424 29.4550483 -10.99932002 22.03159533 -8.875 13.8125 C-7.09157023 8.44506233 -3.99158078 3.99158078 0 0 Z " fill="#F5F5F5" transform="translate(617,179)"/>
<path d="M0 0 C0.99 0.33 1.98 0.66 3 1 C2.835 1.515625 2.67 2.03125 2.5 2.5625 C1.83416874 5.80842738 1.75966824 8.69543832 2 12 C3.54262813 14.10358381 4.68108317 14.84054159 7 16 C6.65025665 23.22802931 4.99321263 28.89477028 1 35 C-2.21302289 37.14201526 -3.26709281 37.65325876 -7 37 C-11.42729383 31.2805295 -10.55559406 24.88486154 -10 18 C-8.87493963 11.89369408 -6.88051563 6.85064454 -3 2 C-2.01 1.34 -1.02 0.68 0 0 Z " fill="#F8F8F8" transform="translate(762,179)"/>
<path d="M0 0 C2.8125 0.875 2.8125 0.875 4.8125 2.875 C4.8125 10.68061407 0.38792792 18.39371056 -4.8125 24.0625 C-7.1875 25.875 -7.1875 25.875 -11.1875 25.875 C-13.5303852 21.18922959 -12.92286034 14.36083767 -11.46875 9.4453125 C-9.05924573 4.2959687 -6.18214257 -0.24243696 0 0 Z " fill="#F6F6F6" transform="translate(346.1875,177.125)"/>
<path d="M0 0 C1.875 1.1875 1.875 1.1875 3 3 C2.61199084 7.75821757 1.11831367 11.05455826 -1.3125 15.125 C-1.90675781 16.13820312 -2.50101562 17.15140625 -3.11328125 18.1953125 C-4.92616647 20.89024333 -6.40392516 23.04198483 -9 25 C-11.75 24.75 -11.75 24.75 -14 24 C-14.91892367 9.46058548 -14.91892367 9.46058548 -10.359375 3.4921875 C-6.89395447 -0.3118086 -5.13697731 -1.84404314 0 0 Z " fill="#F7F7F7" transform="translate(437,178)"/>
<path d="M0 0 C0.99 0.33 1.98 0.66 3 1 C3.03738281 2.08539063 3.07476563 3.17078125 3.11328125 4.2890625 C3.17897875 5.73440739 3.24542476 7.17971839 3.3125 8.625 C3.33505859 9.33785156 3.35761719 10.05070313 3.38085938 10.78515625 C3.61903757 15.50541507 4.42655326 18.90475542 7 23 C9.58443323 24.73490246 9.58443323 24.73490246 12 26 C12 26.66 12 27.32 12 28 C12.66 28.33 13.32 28.66 14 29 C9.12615301 28.54661888 6.39586718 27.57942756 3 24 C0.28506108 18.91934667 -0.49330134 13.675025 -1 8 C-1.24234375 8.71027344 -1.4846875 9.42054688 -1.734375 10.15234375 C-2.06953125 11.07144531 -2.4046875 11.99054688 -2.75 12.9375 C-3.23726562 14.31228516 -3.23726562 14.31228516 -3.734375 15.71484375 C-5 18 -5 18 -7.140625 18.81640625 C-7.75421875 18.87699219 -8.3678125 18.93757813 -9 19 C-7.65722223 14.67327162 -5.98484346 10.72685331 -3.9375 6.6875 C-3.41027344 5.63949219 -2.88304687 4.59148437 -2.33984375 3.51171875 C-1 1 -1 1 0 0 Z " fill="#171717" transform="translate(818,164)"/>
<path d="M0 0 C1.56047445 0.00015913 3.12095416 0.00585397 4.68139648 0.01586914 C5.91115456 0.01799156 5.91115456 0.01799156 7.16575623 0.02015686 C9.79470406 0.0257725 12.42356797 0.0383276 15.05249023 0.05102539 C16.8304838 0.05603838 18.60847869 0.06060163 20.38647461 0.06469727 C24.75434569 0.07574701 29.12215371 0.09302208 33.48999023 0.11352539 C34.14999023 1.43352539 34.80999023 2.75352539 35.48999023 4.11352539 C30.73999023 5.23852539 30.73999023 5.23852539 28.48999023 4.11352539 C25.72067655 3.95660632 22.97264917 3.85509405 20.20092773 3.79711914 C18.97329208 3.76594749 18.97329208 3.76594749 17.72085571 3.73414612 C15.10232058 3.66867727 12.48368385 3.60977813 9.86499023 3.55102539 C8.09154216 3.50783763 6.31810442 3.46422325 4.54467773 3.42016602 C0.19321977 3.31299863 -4.15834053 3.2117237 -8.51000977 3.11352539 C-7.87063477 2.80415039 -7.23125977 2.49477539 -6.57250977 2.17602539 C-2.50578387 0.08104539 -2.50578387 0.08104539 0 0 Z " fill="#2A2A2A" transform="translate(409.510009765625,138.886474609375)"/>
<path d="M0 0 C0.66 0.33 1.32 0.66 2 1 C2.84882039 6.51733255 0.80823852 9.77866629 -2.265625 14.140625 C-4 16 -4 16 -7.375 17.0625 C-8.24125 17.041875 -9.1075 17.02125 -10 17 C-10.66206532 12.58623123 -9.81498196 10.29907095 -7.25 6.8125 C-5.09277081 4.05059294 -2.8678162 2.01370572 0 0 Z " fill="#F2F2F2" transform="translate(653,203)"/>
<path d="M0 0 C-1.61079405 6.44317619 -5.36169946 11.36169946 -10 16 C-12.625 15.625 -12.625 15.625 -15 15 C-15 9.01372998 -15 9.01372998 -12.29296875 6.26953125 C-3.94907407 0 -3.94907407 0 0 0 Z " fill="#EFEFEF" transform="translate(727,198)"/>
<path d="M0 0 C-2.41837023 5.56609021 -6.90692375 9.62277631 -11 14 C-11.60457031 14.65871094 -12.20914063 15.31742188 -12.83203125 15.99609375 C-17.07288558 20.45544643 -21.77726469 23.76687814 -27 27 C-27 24 -27 24 -25.125 21.875 C-21.72661203 18.66807051 -18.19621879 15.59949994 -14.70703125 12.4921875 C-11.00787786 9.08661771 -7.51633158 5.49403457 -4.03125 1.87109375 C-2 0 -2 0 0 0 Z " fill="#1F1F1F" transform="translate(913,191)"/>
<path d="M0 0 C0.99 0.33 1.98 0.66 3 1 C2.93143789 4.42810525 2.78160908 7.04774311 0.55078125 9.765625 C-2.74041696 12.70699954 -5.44641188 14.72402496 -10 15 C-8.31036054 8.70225293 -5.45296543 3.63531029 0 0 Z " fill="#EFEFEF" transform="translate(245,176)"/>
<path d="M0 0 C0.66 0 1.32 0 2 0 C-1.10565746 8.58262973 -8.10368498 19.09883895 -16 24 C-16.66 24 -17.32 24 -18 24 C-18 23.01 -18 22.02 -18 21 C-16.6015625 19.66796875 -16.6015625 19.66796875 -14.625 18.1875 C-9.90293568 14.29179693 -6.70469513 9.66796428 -3.32666016 4.6237793 C-2.26132452 3.0521014 -1.13550977 1.52175194 0 0 Z " fill="#191919" transform="translate(475,191)"/>
<path d="M0 0 C4.55555556 0.55555556 4.55555556 0.55555556 6 2 C5.71269945 4.33944736 5.38063221 6.6739143 5 9 C2.125 9.625 2.125 9.625 -1 10 C-1.66 9.34 -2.32 8.68 -3 8 C-2.54545455 2.54545455 -2.54545455 2.54545455 0 0 Z " fill="#191919" transform="translate(679,156)"/>
<path d="M0 0 C0.99 0.33 1.98 0.66 3 1 C3 3.64 3 6.28 3 9 C2.67 9 2.34 9 2 9 C1.67 7.35 1.34 5.7 1 4 C0.41992188 4.68707031 -0.16015625 5.37414062 -0.7578125 6.08203125 C-1.53898438 6.98308594 -2.32015625 7.88414062 -3.125 8.8125 C-3.89070312 9.70582031 -4.65640625 10.59914062 -5.4453125 11.51953125 C-8.12703679 14.12334612 -10.59219337 15.51340609 -14 17 C-13.44961611 13.29300265 -12.13470436 11.93493244 -9.25 9.625 C-5.69487265 6.66452525 -2.84254187 3.64200677 0 0 Z " fill="#1A1A1A" transform="translate(862,199)"/>
<path d="M0 0 C0.33 0 0.66 0 1 0 C1.03738281 1.08539063 1.07476563 2.17078125 1.11328125 3.2890625 C1.17897875 4.73440739 1.24542476 6.17971839 1.3125 7.625 C1.33505859 8.33785156 1.35761719 9.05070313 1.38085938 9.78515625 C1.61903757 14.50541507 2.42655326 17.90475542 5 22 C7.58443323 23.73490246 7.58443323 23.73490246 10 25 C10 25.66 10 26.32 10 27 C10.66 27.33 11.32 27.66 12 28 C7.11987721 27.54603509 4.31990988 26.67881905 1 23 C-0.28411264 19.72808099 -1.19740244 16.4191961 -2 13 C-1.34 13 -0.68 13 0 13 C0 8.71 0 4.42 0 0 Z " fill="#313131" transform="translate(820,165)"/>
<path d="M0 0 C1.875 0.75 1.875 0.75 2.875 1.75 C3.0625 4.6875 3.0625 4.6875 2.875 7.75 C2.215 8.41 1.555 9.07 0.875 9.75 C-3.68055556 9.19444444 -3.68055556 9.19444444 -5.125 7.75 C-5.42732139 4.87794676 -5.49892386 3.31088579 -3.875 0.875 C-2.125 -0.25 -2.125 -0.25 0 0 Z " fill="#0B0B0B" transform="translate(844.125,156.25)"/>
<path d="M0 0 C0.66 0.33 1.32 0.66 2 1 C1.65066406 1.58007812 1.30132813 2.16015625 0.94140625 2.7578125 C-1.63029891 7.17269444 -3.59995505 10.79941563 -4 16 C-3.01 16 -2.02 16 -1 16 C-1 16.66 -1 17.32 -1 18 C-0.34 18.33 0.32 18.66 1 19 C-1.3431213 18.74438677 -3.67843403 18.40729228 -6 18 C-7.49590709 15.00818583 -7.42743011 13.3583794 -7 10 C-5.05320754 6.47945316 -2.86037093 2.86037093 0 0 Z " fill="#191919" transform="translate(647,204)"/>
<path d="M0 0 C0.66 0 1.32 0 2 0 C1.41600702 3.77018995 -0.22638813 5.75901388 -2.75 8.5625 C-3.76320313 9.70912109 -3.76320313 9.70912109 -4.796875 10.87890625 C-7.45605895 13.43907803 -10.16392927 16 -14 16 C-12.5836449 12.66353464 -10.91828002 10.84455707 -8.125 8.5625 C-4.99698022 5.93315004 -2.5325627 3.2144065 0 0 Z " fill="#191919" transform="translate(324,200)"/>
<path d="M0 0 C0.99 0.33 1.98 0.66 3 1 C-1.41009417 5.85110358 -6.58004353 9.348107 -12 13 C-12.33 12.34 -12.66 11.68 -13 11 C-10.13279564 7.95359537 -7.16064593 5.21956911 -3.875 2.625 C-3.21242188 2.10164062 -2.54984375 1.57828125 -1.8671875 1.0390625 C-1.25101562 0.69617188 -0.63484375 0.35328125 0 0 Z " fill="#181818" transform="translate(267,196)"/>
<path d="M0 0 C0.33 0.99 0.66 1.98 1 3 C-1.81418892 6.9729726 -4.4490607 10.01625723 -9 12 C-11.3125 11.6875 -11.3125 11.6875 -13 11 C-11.62102771 8.24205543 -9.47669255 7.58455882 -6.85546875 6.15234375 C-4.12142143 4.45435646 -2.16894347 2.36612015 0 0 Z " fill="#141414" transform="translate(249,181)"/>
<path d="M0 0 C0.33 0.99 0.66 1.98 1 3 C-0.29296875 4.97265625 -0.29296875 4.97265625 -2.1875 7.0625 C-2.79980469 7.75472656 -3.41210938 8.44695312 -4.04296875 9.16015625 C-5.95147843 10.95438391 -7.60631797 11.9756527 -10 13 C-10.33 12.34 -10.66 11.68 -11 11 C-10.2575 10.278125 -9.515 9.55625 -8.75 8.8125 C-5.99867822 6.09431767 -5.99867822 6.09431767 -3.8125 3.25 C-2 1 -2 1 0 0 Z " fill="#1A1A1A" transform="translate(410,208)"/>
<path d="M0 0 C0.33 0.66 0.66 1.32 1 2 C-2.72346836 6.42094803 -6.29521038 10.57833482 -11 14 C-11.66 13.01 -12.32 12.02 -13 11 C-11.9275 10.278125 -10.855 9.55625 -9.75 8.8125 C-6.56875738 6.55670978 -4.34830358 4.13107144 -2 1 C-1.34 0.67 -0.68 0.34 0 0 Z " fill="#151515" transform="translate(699,201)"/>
<path d="M0 0 C0.66 0 1.32 0 2 0 C1.45123677 3.76651128 -0.00763849 5.26652261 -2.875 7.6875 C-3.57367188 8.28949219 -4.27234375 8.89148438 -4.9921875 9.51171875 C-7 11 -7 11 -10 12 C-9.45991831 8.17723432 -7.93135626 6.72563435 -5 4.3125 C-4.278125 3.71050781 -3.55625 3.10851562 -2.8125 2.48828125 C-2.214375 1.99714844 -1.61625 1.50601563 -1 1 C-0.67 0.67 -0.34 0.34 0 0 Z " fill="#202020" transform="translate(377,204)"/>
<path d="M0 0 C0.66 0.66 1.32 1.32 2 2 C1.2575 2.8353125 1.2575 2.8353125 0.5 3.6875 C-1.24754367 6.38162983 -1.26218749 7.85375007 -1 11 C0.32 11.66 1.64 12.32 3 13 C0.625 13.625 0.625 13.625 -2 14 C-4 12 -4 12 -4.375 8.6875 C-3.94805086 4.48916683 -2.88994071 2.98025136 0 0 Z " fill="#080808" transform="translate(714,202)"/>
<path d="M0 0 C0.66 0 1.32 0 2 0 C2 4.62 2 9.24 2 14 C1.34 14 0.68 14 0 14 C-0.33 11.36 -0.66 8.72 -1 6 C-1.66 6 -2.32 6 -3 6 C-1.125 1.125 -1.125 1.125 0 0 Z " fill="#060606" transform="translate(818,164)"/>
<path d="M0 0 C0.66 0.66 1.32 1.32 2 2 C1.828125 4.171875 1.828125 4.171875 1.25 6.75 C1.05148438 7.63945312 0.85296875 8.52890625 0.6484375 9.4453125 C-0.09001604 12.35464149 -0.96229419 15.18336993 -2 18 C-2.33 18 -2.66 18 -3 18 C-2.51679152 11.7945858 -1.66681876 6.00054754 0 0 Z " fill="#BEBEBE" transform="translate(147,144)"/>
<path d="M0 0 C0.66 0.33 1.32 0.66 2 1 C2 1.66 2 2.32 2 3 C-3.445 5.475 -3.445 5.475 -9 8 C-8 4 -8 4 -6.22265625 2.69921875 C-5.50980469 2.36535156 -4.79695312 2.03148437 -4.0625 1.6875 C-3.35222656 1.34074219 -2.64195312 0.99398437 -1.91015625 0.63671875 C-1.27980469 0.42660156 -0.64945313 0.21648437 0 0 Z " fill="#1C1C1C" transform="translate(667,192)"/>
<path d="M0 0 C2.64 0 5.28 0 8 0 C8 1.32 8 2.64 8 4 C2.25 3.125 2.25 3.125 0 2 C0 1.34 0 0.68 0 0 Z " fill="#0F0F0F" transform="translate(436,140)"/>
<path d="M0 0 C1.5 1.3125 1.5 1.3125 3 3 C3 3.99 3 4.98 3 6 C3.99 6 4.98 6 6 6 C6 6.66 6 7.32 6 8 C6.66 8.33 7.32 8.66 8 9 C5.6568787 8.74438677 3.32156597 8.40729228 1 8 C-0.35439668 5.29120665 -0.06501451 2.99066732 0 0 Z " fill="#2B2B2B" transform="translate(640,214)"/>
<path d="M0 0 C0.66 0.66 1.32 1.32 2 2 C0.35 4.31 -1.3 6.62 -3 9 C-3.66 8.34 -4.32 7.68 -5 7 C-3.35 4.69 -1.7 2.38 0 0 Z " fill="#151515" transform="translate(383,196)"/>
<path d="M0 0 C-0.33 0.99 -0.66 1.98 -1 3 C-3.31 3.33 -5.62 3.66 -8 4 C-8 3.01 -8 2.02 -8 1 C-5.07175348 0.02391783 -3.04386724 -0.08226668 0 0 Z " fill="#2B2B2B" transform="translate(745,191)"/>
<path d="M0 0 C0.66 0.33 1.32 0.66 2 1 C2 1.66 2 2.32 2 3 C-0.90548882 5.04169485 -2.40142046 6 -6 6 C-5 3 -5 3 -2.5625 1.25 C-1.716875 0.8375 -0.87125 0.425 0 0 Z " fill="#1C1C1C" transform="translate(721,197)"/>
<path d="M0 0 C0.99 0.33 1.98 0.66 3 1 C3 3.64 3 6.28 3 9 C2.67 9 2.34 9 2 9 C1.67 7.35 1.34 5.7 1 4 C0.01 4 -0.98 4 -2 4 C-1.34 2.68 -0.68 1.36 0 0 Z " fill="#3D3D3D" transform="translate(862,199)"/>
</svg>
